<?xml version="1.0" encoding="utf-8" standalone="no"?>
<!DOCTYPE svg PUBLIC "-//W3C//DTD SVG 1.1//EN"
  "http://www.w3.org/Graphics/SVG/1.1/DTD/svg11.dtd">
<!-- Created with matplotlib (https://matplotlib.org/) -->
<svg height="345.6pt" version="1.1" viewBox="0 0 460.8 345.6" width="460.8pt" xmlns="http://www.w3.org/2000/svg" xmlns:xlink="http://www.w3.org/1999/xlink">
 <defs>
  <style type="text/css">
*{stroke-linecap:butt;stroke-linejoin:round;}
  </style>
 </defs>
 <g id="figure_1">
  <g id="patch_1">
   <path d="M 0 345.6 
L 460.8 345.6 
L 460.8 0 
L 0 0 
z
" style="fill:#ffffff;"/>
  </g>
  <g id="axes_1">
   <g id="patch_2">
    <path d="M 43.09 272.810464 
L 450 272.810464 
L 450 26.88 
L 43.09 26.88 
z
" style="fill:#ffffff;"/>
   </g>
   <g id="matplotlib.axis_1">
    <g id="xtick_1">
     <g id="line2d_1">
      <path clip-path="url(#p3f9b307db3)" d="M 348.37641 272.810464 
L 348.37641 26.88 
" style="fill:none;stroke:#b0b0b0;stroke-linecap:square;stroke-width:0.8;"/>
     </g>
     <g id="line2d_2">
      <defs>
       <path d="M 0 0 
L 0 3.5 
" id="mf44dbbb3bd" style="stroke:#000000;stroke-width:0.8;"/>
      </defs>
      <g>
       <use style="stroke:#000000;stroke-width:0.8;" x="348.37641" xlink:href="#mf44dbbb3bd" y="272.810464"/>
      </g>
     </g>
     <g id="text_1">
      <!-- 2020-04-26 -->
      <defs>
       <path d="M 19.1875 8.296875 
L 53.609375 8.296875 
L 53.609375 0 
L 7.328125 0 
L 7.328125 8.296875 
Q 12.9375 14.109375 22.625 23.890625 
Q 32.328125 33.6875 34.8125 36.53125 
Q 39.546875 41.84375 41.421875 45.53125 
Q 43.3125 49.21875 43.3125 52.78125 
Q 43.3125 58.59375 39.234375 62.25 
Q 35.15625 65.921875 28.609375 65.921875 
Q 23.96875 65.921875 18.8125 64.3125 
Q 13.671875 62.703125 7.8125 59.421875 
L 7.8125 69.390625 
Q 13.765625 71.78125 18.9375 73 
Q 24.125 74.21875 28.421875 74.21875 
Q 39.75 74.21875 46.484375 68.546875 
Q 53.21875 62.890625 53.21875 53.421875 
Q 53.21875 48.921875 51.53125 44.890625 
Q 49.859375 40.875 45.40625 35.40625 
Q 44.1875 33.984375 37.640625 27.21875 
Q 31.109375 20.453125 19.1875 8.296875 
z
" id="DejaVuSans-50"/>
       <path d="M 31.78125 66.40625 
Q 24.171875 66.40625 20.328125 58.90625 
Q 16.5 51.421875 16.5 36.375 
Q 16.5 21.390625 20.328125 13.890625 
Q 24.171875 6.390625 31.78125 6.390625 
Q 39.453125 6.390625 43.28125 13.890625 
Q 47.125 21.390625 47.125 36.375 
Q 47.125 51.421875 43.28125 58.90625 
Q 39.453125 66.40625 31.78125 66.40625 
z
M 31.78125 74.21875 
Q 44.046875 74.21875 50.515625 64.515625 
Q 56.984375 54.828125 56.984375 36.375 
Q 56.984375 17.96875 50.515625 8.265625 
Q 44.046875 -1.421875 31.78125 -1.421875 
Q 19.53125 -1.421875 13.0625 8.265625 
Q 6.59375 17.96875 6.59375 36.375 
Q 6.59375 54.828125 13.0625 64.515625 
Q 19.53125 74.21875 31.78125 74.21875 
z
" id="DejaVuSans-48"/>
       <path d="M 4.890625 31.390625 
L 31.203125 31.390625 
L 31.203125 23.390625 
L 4.890625 23.390625 
z
" id="DejaVuSans-45"/>
       <path d="M 37.796875 64.3125 
L 12.890625 25.390625 
L 37.796875 25.390625 
z
M 35.203125 72.90625 
L 47.609375 72.90625 
L 47.609375 25.390625 
L 58.015625 25.390625 
L 58.015625 17.1875 
L 47.609375 17.1875 
L 47.609375 0 
L 37.796875 0 
L 37.796875 17.1875 
L 4.890625 17.1875 
L 4.890625 26.703125 
z
" id="DejaVuSans-52"/>
       <path d="M 33.015625 40.375 
Q 26.375 40.375 22.484375 35.828125 
Q 18.609375 31.296875 18.609375 23.390625 
Q 18.609375 15.53125 22.484375 10.953125 
Q 26.375 6.390625 33.015625 6.390625 
Q 39.65625 6.390625 43.53125 10.953125 
Q 47.40625 15.53125 47.40625 23.390625 
Q 47.40625 31.296875 43.53125 35.828125 
Q 39.65625 40.375 33.015625 40.375 
z
M 52.59375 71.296875 
L 52.59375 62.3125 
Q 48.875 64.0625 45.09375 64.984375 
Q 41.3125 65.921875 37.59375 65.921875 
Q 27.828125 65.921875 22.671875 59.328125 
Q 17.53125 52.734375 16.796875 39.40625 
Q 19.671875 43.65625 24.015625 45.921875 
Q 28.375 48.1875 33.59375 48.1875 
Q 44.578125 48.1875 50.953125 41.515625 
Q 57.328125 34.859375 57.328125 23.390625 
Q 57.328125 12.15625 50.6875 5.359375 
Q 44.046875 -1.421875 33.015625 -1.421875 
Q 20.359375 -1.421875 13.671875 8.265625 
Q 6.984375 17.96875 6.984375 36.375 
Q 6.984375 53.65625 15.1875 63.9375 
Q 23.390625 74.21875 37.203125 74.21875 
Q 40.921875 74.21875 44.703125 73.484375 
Q 48.484375 72.75 52.59375 71.296875 
z
" id="DejaVuSans-54"/>
      </defs>
      <g transform="translate(297.006958 315.448716)rotate(-30)scale(0.1 -0.1)">
       <use xlink:href="#DejaVuSans-50"/>
       <use x="63.623047" xlink:href="#DejaVuSans-48"/>
       <use x="127.246094" xlink:href="#DejaVuSans-50"/>
       <use x="190.869141" xlink:href="#DejaVuSans-48"/>
       <use x="254.492188" xlink:href="#DejaVuSans-45"/>
       <use x="290.576172" xlink:href="#DejaVuSans-48"/>
       <use x="354.199219" xlink:href="#DejaVuSans-52"/>
       <use x="417.822266" xlink:href="#DejaVuSans-45"/>
       <use x="453.90625" xlink:href="#DejaVuSans-50"/>
       <use x="517.529297" xlink:href="#DejaVuSans-54"/>
      </g>
     </g>
    </g>
    <g id="xtick_2">
     <g id="line2d_3">
      <path clip-path="url(#p3f9b307db3)" d="M 319.281721 272.810464 
L 319.281721 26.88 
" style="fill:none;stroke:#b0b0b0;stroke-linecap:square;stroke-width:0.8;"/>
     </g>
     <g id="line2d_4">
      <g>
       <use style="stroke:#000000;stroke-width:0.8;" x="319.281721" xlink:href="#mf44dbbb3bd" y="272.810464"/>
      </g>
     </g>
     <g id="text_2">
      <!-- 2020-04-19 -->
      <defs>
       <path d="M 12.40625 8.296875 
L 28.515625 8.296875 
L 28.515625 63.921875 
L 10.984375 60.40625 
L 10.984375 69.390625 
L 28.421875 72.90625 
L 38.28125 72.90625 
L 38.28125 8.296875 
L 54.390625 8.296875 
L 54.390625 0 
L 12.40625 0 
z
" id="DejaVuSans-49"/>
       <path d="M 10.984375 1.515625 
L 10.984375 10.5 
Q 14.703125 8.734375 18.5 7.8125 
Q 22.3125 6.890625 25.984375 6.890625 
Q 35.75 6.890625 40.890625 13.453125 
Q 46.046875 20.015625 46.78125 33.40625 
Q 43.953125 29.203125 39.59375 26.953125 
Q 35.25 24.703125 29.984375 24.703125 
Q 19.046875 24.703125 12.671875 31.3125 
Q 6.296875 37.9375 6.296875 49.421875 
Q 6.296875 60.640625 12.9375 67.421875 
Q 19.578125 74.21875 30.609375 74.21875 
Q 43.265625 74.21875 49.921875 64.515625 
Q 56.59375 54.828125 56.59375 36.375 
Q 56.59375 19.140625 48.40625 8.859375 
Q 40.234375 -1.421875 26.421875 -1.421875 
Q 22.703125 -1.421875 18.890625 -0.6875 
Q 15.09375 0.046875 10.984375 1.515625 
z
M 30.609375 32.421875 
Q 37.25 32.421875 41.125 36.953125 
Q 45.015625 41.5 45.015625 49.421875 
Q 45.015625 57.28125 41.125 61.84375 
Q 37.25 66.40625 30.609375 66.40625 
Q 23.96875 66.40625 20.09375 61.84375 
Q 16.21875 57.28125 16.21875 49.421875 
Q 16.21875 41.5 20.09375 36.953125 
Q 23.96875 32.421875 30.609375 32.421875 
z
" id="DejaVuSans-57"/>
      </defs>
      <g transform="translate(267.91227 315.448716)rotate(-30)scale(0.1 -0.1)">
       <use xlink:href="#DejaVuSans-50"/>
       <use x="63.623047" xlink:href="#DejaVuSans-48"/>
       <use x="127.246094" xlink:href="#DejaVuSans-50"/>
       <use x="190.869141" xlink:href="#DejaVuSans-48"/>
       <use x="254.492188" xlink:href="#DejaVuSans-45"/>
       <use x="290.576172" xlink:href="#DejaVuSans-48"/>
       <use x="354.199219" xlink:href="#DejaVuSans-52"/>
       <use x="417.822266" xlink:href="#DejaVuSans-45"/>
       <use x="453.90625" xlink:href="#DejaVuSans-49"/>
       <use x="517.529297" xlink:href="#DejaVuSans-57"/>
      </g>
     </g>
    </g>
    <g id="xtick_3">
     <g id="line2d_5">
      <path clip-path="url(#p3f9b307db3)" d="M 290.187033 272.810464 
L 290.187033 26.88 
" style="fill:none;stroke:#b0b0b0;stroke-linecap:square;stroke-width:0.8;"/>
     </g>
     <g id="line2d_6">
      <g>
       <use style="stroke:#000000;stroke-width:0.8;" x="290.187033" xlink:href="#mf44dbbb3bd" y="272.810464"/>
      </g>
     </g>
     <g id="text_3">
      <!-- 2020-04-12 -->
      <g transform="translate(238.817581 315.448716)rotate(-30)scale(0.1 -0.1)">
       <use xlink:href="#DejaVuSans-50"/>
       <use x="63.623047" xlink:href="#DejaVuSans-48"/>
       <use x="127.246094" xlink:href="#DejaVuSans-50"/>
       <use x="190.869141" xlink:href="#DejaVuSans-48"/>
       <use x="254.492188" xlink:href="#DejaVuSans-45"/>
       <use x="290.576172" xlink:href="#DejaVuSans-48"/>
       <use x="354.199219" xlink:href="#DejaVuSans-52"/>
       <use x="417.822266" xlink:href="#DejaVuSans-45"/>
       <use x="453.90625" xlink:href="#DejaVuSans-49"/>
       <use x="517.529297" xlink:href="#DejaVuSans-50"/>
      </g>
     </g>
    </g>
    <g id="xtick_4">
     <g id="line2d_7">
      <path clip-path="url(#p3f9b307db3)" d="M 261.092344 272.810464 
L 261.092344 26.88 
" style="fill:none;stroke:#b0b0b0;stroke-linecap:square;stroke-width:0.8;"/>
     </g>
     <g id="line2d_8">
      <g>
       <use style="stroke:#000000;stroke-width:0.8;" x="261.092344" xlink:href="#mf44dbbb3bd" y="272.810464"/>
      </g>
     </g>
     <g id="text_4">
      <!-- 2020-04-05 -->
      <defs>
       <path d="M 10.796875 72.90625 
L 49.515625 72.90625 
L 49.515625 64.59375 
L 19.828125 64.59375 
L 19.828125 46.734375 
Q 21.96875 47.46875 24.109375 47.828125 
Q 26.265625 48.1875 28.421875 48.1875 
Q 40.625 48.1875 47.75 41.5 
Q 54.890625 34.8125 54.890625 23.390625 
Q 54.890625 11.625 47.5625 5.09375 
Q 40.234375 -1.421875 26.90625 -1.421875 
Q 22.3125 -1.421875 17.546875 -0.640625 
Q 12.796875 0.140625 7.71875 1.703125 
L 7.71875 11.625 
Q 12.109375 9.234375 16.796875 8.0625 
Q 21.484375 6.890625 26.703125 6.890625 
Q 35.15625 6.890625 40.078125 11.328125 
Q 45.015625 15.765625 45.015625 23.390625 
Q 45.015625 31 40.078125 35.4375 
Q 35.15625 39.890625 26.703125 39.890625 
Q 22.75 39.890625 18.8125 39.015625 
Q 14.890625 38.140625 10.796875 36.28125 
z
" id="DejaVuSans-53"/>
      </defs>
      <g transform="translate(209.722893 315.448716)rotate(-30)scale(0.1 -0.1)">
       <use xlink:href="#DejaVuSans-50"/>
       <use x="63.623047" xlink:href="#DejaVuSans-48"/>
       <use x="127.246094" xlink:href="#DejaVuSans-50"/>
       <use x="190.869141" xlink:href="#DejaVuSans-48"/>
       <use x="254.492188" xlink:href="#DejaVuSans-45"/>
       <use x="290.576172" xlink:href="#DejaVuSans-48"/>
       <use x="354.199219" xlink:href="#DejaVuSans-52"/>
       <use x="417.822266" xlink:href="#DejaVuSans-45"/>
       <use x="453.90625" xlink:href="#DejaVuSans-48"/>
       <use x="517.529297" xlink:href="#DejaVuSans-53"/>
      </g>
     </g>
    </g>
    <g id="xtick_5">
     <g id="line2d_9">
      <path clip-path="url(#p3f9b307db3)" d="M 231.997656 272.810464 
L 231.997656 26.88 
" style="fill:none;stroke:#b0b0b0;stroke-linecap:square;stroke-width:0.8;"/>
     </g>
     <g id="line2d_10">
      <g>
       <use style="stroke:#000000;stroke-width:0.8;" x="231.997656" xlink:href="#mf44dbbb3bd" y="272.810464"/>
      </g>
     </g>
     <g id="text_5">
      <!-- 2020-03-29 -->
      <defs>
       <path d="M 40.578125 39.3125 
Q 47.65625 37.796875 51.625 33 
Q 55.609375 28.21875 55.609375 21.1875 
Q 55.609375 10.40625 48.1875 4.484375 
Q 40.765625 -1.421875 27.09375 -1.421875 
Q 22.515625 -1.421875 17.65625 -0.515625 
Q 12.796875 0.390625 7.625 2.203125 
L 7.625 11.71875 
Q 11.71875 9.328125 16.59375 8.109375 
Q 21.484375 6.890625 26.8125 6.890625 
Q 36.078125 6.890625 40.9375 10.546875 
Q 45.796875 14.203125 45.796875 21.1875 
Q 45.796875 27.640625 41.28125 31.265625 
Q 36.765625 34.90625 28.71875 34.90625 
L 20.21875 34.90625 
L 20.21875 43.015625 
L 29.109375 43.015625 
Q 36.375 43.015625 40.234375 45.921875 
Q 44.09375 48.828125 44.09375 54.296875 
Q 44.09375 59.90625 40.109375 62.90625 
Q 36.140625 65.921875 28.71875 65.921875 
Q 24.65625 65.921875 20.015625 65.03125 
Q 15.375 64.15625 9.8125 62.3125 
L 9.8125 71.09375 
Q 15.4375 72.65625 20.34375 73.4375 
Q 25.25 74.21875 29.59375 74.21875 
Q 40.828125 74.21875 47.359375 69.109375 
Q 53.90625 64.015625 53.90625 55.328125 
Q 53.90625 49.265625 50.4375 45.09375 
Q 46.96875 40.921875 40.578125 39.3125 
z
" id="DejaVuSans-51"/>
      </defs>
      <g transform="translate(180.628204 315.448716)rotate(-30)scale(0.1 -0.1)">
       <use xlink:href="#DejaVuSans-50"/>
       <use x="63.623047" xlink:href="#DejaVuSans-48"/>
       <use x="127.246094" xlink:href="#DejaVuSans-50"/>
       <use x="190.869141" xlink:href="#DejaVuSans-48"/>
       <use x="254.492188" xlink:href="#DejaVuSans-45"/>
       <use x="290.576172" xlink:href="#DejaVuSans-48"/>
       <use x="354.199219" xlink:href="#DejaVuSans-51"/>
       <use x="417.822266" xlink:href="#DejaVuSans-45"/>
       <use x="453.90625" xlink:href="#DejaVuSans-50"/>
       <use x="517.529297" xlink:href="#DejaVuSans-57"/>
      </g>
     </g>
    </g>
    <g id="xtick_6">
     <g id="line2d_11">
      <path clip-path="url(#p3f9b307db3)" d="M 202.902967 272.810464 
L 202.902967 26.88 
" style="fill:none;stroke:#b0b0b0;stroke-linecap:square;stroke-width:0.8;"/>
     </g>
     <g id="line2d_12">
      <g>
       <use style="stroke:#000000;stroke-width:0.8;" x="202.902967" xlink:href="#mf44dbbb3bd" y="272.810464"/>
      </g>
     </g>
     <g id="text_6">
      <!-- 2020-03-22 -->
      <g transform="translate(151.533516 315.448716)rotate(-30)scale(0.1 -0.1)">
       <use xlink:href="#DejaVuSans-50"/>
       <use x="63.623047" xlink:href="#DejaVuSans-48"/>
       <use x="127.246094" xlink:href="#DejaVuSans-50"/>
       <use x="190.869141" xlink:href="#DejaVuSans-48"/>
       <use x="254.492188" xlink:href="#DejaVuSans-45"/>
       <use x="290.576172" xlink:href="#DejaVuSans-48"/>
       <use x="354.199219" xlink:href="#DejaVuSans-51"/>
       <use x="417.822266" xlink:href="#DejaVuSans-45"/>
       <use x="453.90625" xlink:href="#DejaVuSans-50"/>
       <use x="517.529297" xlink:href="#DejaVuSans-50"/>
      </g>
     </g>
    </g>
    <g id="xtick_7">
     <g id="line2d_13">
      <path clip-path="url(#p3f9b307db3)" d="M 173.808279 272.810464 
L 173.808279 26.88 
" style="fill:none;stroke:#b0b0b0;stroke-linecap:square;stroke-width:0.8;"/>
     </g>
     <g id="line2d_14">
      <g>
       <use style="stroke:#000000;stroke-width:0.8;" x="173.808279" xlink:href="#mf44dbbb3bd" y="272.810464"/>
      </g>
     </g>
     <g id="text_7">
      <!-- 2020-03-15 -->
      <g transform="translate(122.438827 315.448716)rotate(-30)scale(0.1 -0.1)">
       <use xlink:href="#DejaVuSans-50"/>
       <use x="63.623047" xlink:href="#DejaVuSans-48"/>
       <use x="127.246094" xlink:href="#DejaVuSans-50"/>
       <use x="190.869141" xlink:href="#DejaVuSans-48"/>
       <use x="254.492188" xlink:href="#DejaVuSans-45"/>
       <use x="290.576172" xlink:href="#DejaVuSans-48"/>
       <use x="354.199219" xlink:href="#DejaVuSans-51"/>
       <use x="417.822266" xlink:href="#DejaVuSans-45"/>
       <use x="453.90625" xlink:href="#DejaVuSans-49"/>
       <use x="517.529297" xlink:href="#DejaVuSans-53"/>
      </g>
     </g>
    </g>
    <g id="xtick_8">
     <g id="line2d_15">
      <path clip-path="url(#p3f9b307db3)" d="M 144.71359 272.810464 
L 144.71359 26.88 
" style="fill:none;stroke:#b0b0b0;stroke-linecap:square;stroke-width:0.8;"/>
     </g>
     <g id="line2d_16">
      <g>
       <use style="stroke:#000000;stroke-width:0.8;" x="144.71359" xlink:href="#mf44dbbb3bd" y="272.810464"/>
      </g>
     </g>
     <g id="text_8">
      <!-- 2020-03-08 -->
      <defs>
       <path d="M 31.78125 34.625 
Q 24.75 34.625 20.71875 30.859375 
Q 16.703125 27.09375 16.703125 20.515625 
Q 16.703125 13.921875 20.71875 10.15625 
Q 24.75 6.390625 31.78125 6.390625 
Q 38.8125 6.390625 42.859375 10.171875 
Q 46.921875 13.96875 46.921875 20.515625 
Q 46.921875 27.09375 42.890625 30.859375 
Q 38.875 34.625 31.78125 34.625 
z
M 21.921875 38.8125 
Q 15.578125 40.375 12.03125 44.71875 
Q 8.5 49.078125 8.5 55.328125 
Q 8.5 64.0625 14.71875 69.140625 
Q 20.953125 74.21875 31.78125 74.21875 
Q 42.671875 74.21875 48.875 69.140625 
Q 55.078125 64.0625 55.078125 55.328125 
Q 55.078125 49.078125 51.53125 44.71875 
Q 48 40.375 41.703125 38.8125 
Q 48.828125 37.15625 52.796875 32.3125 
Q 56.78125 27.484375 56.78125 20.515625 
Q 56.78125 9.90625 50.3125 4.234375 
Q 43.84375 -1.421875 31.78125 -1.421875 
Q 19.734375 -1.421875 13.25 4.234375 
Q 6.78125 9.90625 6.78125 20.515625 
Q 6.78125 27.484375 10.78125 32.3125 
Q 14.796875 37.15625 21.921875 38.8125 
z
M 18.3125 54.390625 
Q 18.3125 48.734375 21.84375 45.5625 
Q 25.390625 42.390625 31.78125 42.390625 
Q 38.140625 42.390625 41.71875 45.5625 
Q 45.3125 48.734375 45.3125 54.390625 
Q 45.3125 60.0625 41.71875 63.234375 
Q 38.140625 66.40625 31.78125 66.40625 
Q 25.390625 66.40625 21.84375 63.234375 
Q 18.3125 60.0625 18.3125 54.390625 
z
" id="DejaVuSans-56"/>
      </defs>
      <g transform="translate(93.344139 315.448716)rotate(-30)scale(0.1 -0.1)">
       <use xlink:href="#DejaVuSans-50"/>
       <use x="63.623047" xlink:href="#DejaVuSans-48"/>
       <use x="127.246094" xlink:href="#DejaVuSans-50"/>
       <use x="190.869141" xlink:href="#DejaVuSans-48"/>
       <use x="254.492188" xlink:href="#DejaVuSans-45"/>
       <use x="290.576172" xlink:href="#DejaVuSans-48"/>
       <use x="354.199219" xlink:href="#DejaVuSans-51"/>
       <use x="417.822266" xlink:href="#DejaVuSans-45"/>
       <use x="453.90625" xlink:href="#DejaVuSans-48"/>
       <use x="517.529297" xlink:href="#DejaVuSans-56"/>
      </g>
     </g>
    </g>
    <g id="xtick_9">
     <g id="line2d_17">
      <path clip-path="url(#p3f9b307db3)" d="M 115.618902 272.810464 
L 115.618902 26.88 
" style="fill:none;stroke:#b0b0b0;stroke-linecap:square;stroke-width:0.8;"/>
     </g>
     <g id="line2d_18">
      <g>
       <use style="stroke:#000000;stroke-width:0.8;" x="115.618902" xlink:href="#mf44dbbb3bd" y="272.810464"/>
      </g>
     </g>
     <g id="text_9">
      <!-- 2020-03-01 -->
      <g transform="translate(64.249451 315.448716)rotate(-30)scale(0.1 -0.1)">
       <use xlink:href="#DejaVuSans-50"/>
       <use x="63.623047" xlink:href="#DejaVuSans-48"/>
       <use x="127.246094" xlink:href="#DejaVuSans-50"/>
       <use x="190.869141" xlink:href="#DejaVuSans-48"/>
       <use x="254.492188" xlink:href="#DejaVuSans-45"/>
       <use x="290.576172" xlink:href="#DejaVuSans-48"/>
       <use x="354.199219" xlink:href="#DejaVuSans-51"/>
       <use x="417.822266" xlink:href="#DejaVuSans-45"/>
       <use x="453.90625" xlink:href="#DejaVuSans-48"/>
       <use x="517.529297" xlink:href="#DejaVuSans-49"/>
      </g>
     </g>
    </g>
    <g id="xtick_10">
     <g id="line2d_19">
      <path clip-path="url(#p3f9b307db3)" d="M 377.471098 272.810464 
L 377.471098 26.88 
" style="fill:none;stroke:#b0b0b0;stroke-linecap:square;stroke-width:0.8;"/>
     </g>
     <g id="line2d_20">
      <g>
       <use style="stroke:#000000;stroke-width:0.8;" x="377.471098" xlink:href="#mf44dbbb3bd" y="272.810464"/>
      </g>
     </g>
     <g id="text_10">
      <!-- max inc 14d -->
      <defs>
       <path d="M 52 44.1875 
Q 55.375 50.25 60.0625 53.125 
Q 64.75 56 71.09375 56 
Q 79.640625 56 84.28125 50.015625 
Q 88.921875 44.046875 88.921875 33.015625 
L 88.921875 0 
L 79.890625 0 
L 79.890625 32.71875 
Q 79.890625 40.578125 77.09375 44.375 
Q 74.3125 48.1875 68.609375 48.1875 
Q 61.625 48.1875 57.5625 43.546875 
Q 53.515625 38.921875 53.515625 30.90625 
L 53.515625 0 
L 44.484375 0 
L 44.484375 32.71875 
Q 44.484375 40.625 41.703125 44.40625 
Q 38.921875 48.1875 33.109375 48.1875 
Q 26.21875 48.1875 22.15625 43.53125 
Q 18.109375 38.875 18.109375 30.90625 
L 18.109375 0 
L 9.078125 0 
L 9.078125 54.6875 
L 18.109375 54.6875 
L 18.109375 46.1875 
Q 21.1875 51.21875 25.484375 53.609375 
Q 29.78125 56 35.6875 56 
Q 41.65625 56 45.828125 52.96875 
Q 50 49.953125 52 44.1875 
z
" id="DejaVuSans-109"/>
       <path d="M 34.28125 27.484375 
Q 23.390625 27.484375 19.1875 25 
Q 14.984375 22.515625 14.984375 16.5 
Q 14.984375 11.71875 18.140625 8.90625 
Q 21.296875 6.109375 26.703125 6.109375 
Q 34.1875 6.109375 38.703125 11.40625 
Q 43.21875 16.703125 43.21875 25.484375 
L 43.21875 27.484375 
z
M 52.203125 31.203125 
L 52.203125 0 
L 43.21875 0 
L 43.21875 8.296875 
Q 40.140625 3.328125 35.546875 0.953125 
Q 30.953125 -1.421875 24.3125 -1.421875 
Q 15.921875 -1.421875 10.953125 3.296875 
Q 6 8.015625 6 15.921875 
Q 6 25.140625 12.171875 29.828125 
Q 18.359375 34.515625 30.609375 34.515625 
L 43.21875 34.515625 
L 43.21875 35.40625 
Q 43.21875 41.609375 39.140625 45 
Q 35.0625 48.390625 27.6875 48.390625 
Q 23 48.390625 18.546875 47.265625 
Q 14.109375 46.140625 10.015625 43.890625 
L 10.015625 52.203125 
Q 14.9375 54.109375 19.578125 55.046875 
Q 24.21875 56 28.609375 56 
Q 40.484375 56 46.34375 49.84375 
Q 52.203125 43.703125 52.203125 31.203125 
z
" id="DejaVuSans-97"/>
       <path d="M 54.890625 54.6875 
L 35.109375 28.078125 
L 55.90625 0 
L 45.3125 0 
L 29.390625 21.484375 
L 13.484375 0 
L 2.875 0 
L 24.125 28.609375 
L 4.6875 54.6875 
L 15.28125 54.6875 
L 29.78125 35.203125 
L 44.28125 54.6875 
z
" id="DejaVuSans-120"/>
       <path id="DejaVuSans-32"/>
       <path d="M 9.421875 54.6875 
L 18.40625 54.6875 
L 18.40625 0 
L 9.421875 0 
z
M 9.421875 75.984375 
L 18.40625 75.984375 
L 18.40625 64.59375 
L 9.421875 64.59375 
z
" id="DejaVuSans-105"/>
       <path d="M 54.890625 33.015625 
L 54.890625 0 
L 45.90625 0 
L 45.90625 32.71875 
Q 45.90625 40.484375 42.875 44.328125 
Q 39.84375 48.1875 33.796875 48.1875 
Q 26.515625 48.1875 22.3125 43.546875 
Q 18.109375 38.921875 18.109375 30.90625 
L 18.109375 0 
L 9.078125 0 
L 9.078125 54.6875 
L 18.109375 54.6875 
L 18.109375 46.1875 
Q 21.34375 51.125 25.703125 53.5625 
Q 30.078125 56 35.796875 56 
Q 45.21875 56 50.046875 50.171875 
Q 54.890625 44.34375 54.890625 33.015625 
z
" id="DejaVuSans-110"/>
       <path d="M 48.78125 52.59375 
L 48.78125 44.1875 
Q 44.96875 46.296875 41.140625 47.34375 
Q 37.3125 48.390625 33.40625 48.390625 
Q 24.65625 48.390625 19.8125 42.84375 
Q 14.984375 37.3125 14.984375 27.296875 
Q 14.984375 17.28125 19.8125 11.734375 
Q 24.65625 6.203125 33.40625 6.203125 
Q 37.3125 6.203125 41.140625 7.25 
Q 44.96875 8.296875 48.78125 10.40625 
L 48.78125 2.09375 
Q 45.015625 0.34375 40.984375 -0.53125 
Q 36.96875 -1.421875 32.421875 -1.421875 
Q 20.0625 -1.421875 12.78125 6.34375 
Q 5.515625 14.109375 5.515625 27.296875 
Q 5.515625 40.671875 12.859375 48.328125 
Q 20.21875 56 33.015625 56 
Q 37.15625 56 41.109375 55.140625 
Q 45.0625 54.296875 48.78125 52.59375 
z
" id="DejaVuSans-99"/>
       <path d="M 45.40625 46.390625 
L 45.40625 75.984375 
L 54.390625 75.984375 
L 54.390625 0 
L 45.40625 0 
L 45.40625 8.203125 
Q 42.578125 3.328125 38.25 0.953125 
Q 33.9375 -1.421875 27.875 -1.421875 
Q 17.96875 -1.421875 11.734375 6.484375 
Q 5.515625 14.40625 5.515625 27.296875 
Q 5.515625 40.1875 11.734375 48.09375 
Q 17.96875 56 27.875 56 
Q 33.9375 56 38.25 53.625 
Q 42.578125 51.265625 45.40625 46.390625 
z
M 14.796875 27.296875 
Q 14.796875 17.390625 18.875 11.75 
Q 22.953125 6.109375 30.078125 6.109375 
Q 37.203125 6.109375 41.296875 11.75 
Q 45.40625 17.390625 45.40625 27.296875 
Q 45.40625 37.203125 41.296875 42.84375 
Q 37.203125 48.484375 30.078125 48.484375 
Q 22.953125 48.484375 18.875 42.84375 
Q 14.796875 37.203125 14.796875 27.296875 
z
" id="DejaVuSans-100"/>
      </defs>
      <g transform="translate(322.883821 317.306529)rotate(-30)scale(0.1 -0.1)">
       <use xlink:href="#DejaVuSans-109"/>
       <use x="97.412109" xlink:href="#DejaVuSans-97"/>
       <use x="158.691406" xlink:href="#DejaVuSans-120"/>
       <use x="217.871094" xlink:href="#DejaVuSans-32"/>
       <use x="249.658203" xlink:href="#DejaVuSans-105"/>
       <use x="277.441406" xlink:href="#DejaVuSans-110"/>
       <use x="340.820312" xlink:href="#DejaVuSans-99"/>
       <use x="395.800781" xlink:href="#DejaVuSans-32"/>
       <use x="427.587891" xlink:href="#DejaVuSans-49"/>
       <use x="491.210938" xlink:href="#DejaVuSans-52"/>
       <use x="554.833984" xlink:href="#DejaVuSans-100"/>
      </g>
     </g>
    </g>
    <g id="xtick_11">
     <g id="line2d_21">
      <path clip-path="url(#p3f9b307db3)" d="M 410.722171 272.810464 
L 410.722171 26.88 
" style="fill:none;stroke:#b0b0b0;stroke-linecap:square;stroke-width:0.8;"/>
     </g>
     <g id="line2d_22">
      <g>
       <use style="stroke:#000000;stroke-width:0.8;" x="410.722171" xlink:href="#mf44dbbb3bd" y="272.810464"/>
      </g>
     </g>
     <g id="text_11">
      <!-- avg inc 6d -->
      <defs>
       <path d="M 2.984375 54.6875 
L 12.5 54.6875 
L 29.59375 8.796875 
L 46.6875 54.6875 
L 56.203125 54.6875 
L 35.6875 0 
L 23.484375 0 
z
" id="DejaVuSans-118"/>
       <path d="M 45.40625 27.984375 
Q 45.40625 37.75 41.375 43.109375 
Q 37.359375 48.484375 30.078125 48.484375 
Q 22.859375 48.484375 18.828125 43.109375 
Q 14.796875 37.75 14.796875 27.984375 
Q 14.796875 18.265625 18.828125 12.890625 
Q 22.859375 7.515625 30.078125 7.515625 
Q 37.359375 7.515625 41.375 12.890625 
Q 45.40625 18.265625 45.40625 27.984375 
z
M 54.390625 6.78125 
Q 54.390625 -7.171875 48.1875 -13.984375 
Q 42 -20.796875 29.203125 -20.796875 
Q 24.46875 -20.796875 20.265625 -20.09375 
Q 16.0625 -19.390625 12.109375 -17.921875 
L 12.109375 -9.1875 
Q 16.0625 -11.328125 19.921875 -12.34375 
Q 23.78125 -13.375 27.78125 -13.375 
Q 36.625 -13.375 41.015625 -8.765625 
Q 45.40625 -4.15625 45.40625 5.171875 
L 45.40625 9.625 
Q 42.625 4.78125 38.28125 2.390625 
Q 33.9375 0 27.875 0 
Q 17.828125 0 11.671875 7.65625 
Q 5.515625 15.328125 5.515625 27.984375 
Q 5.515625 40.671875 11.671875 48.328125 
Q 17.828125 56 27.875 56 
Q 33.9375 56 38.28125 53.609375 
Q 42.625 51.21875 45.40625 46.390625 
L 45.40625 54.6875 
L 54.390625 54.6875 
z
" id="DejaVuSans-103"/>
      </defs>
      <g transform="translate(364.582701 312.429185)rotate(-30)scale(0.1 -0.1)">
       <use xlink:href="#DejaVuSans-97"/>
       <use x="61.279297" xlink:href="#DejaVuSans-118"/>
       <use x="120.458984" xlink:href="#DejaVuSans-103"/>
       <use x="183.935547" xlink:href="#DejaVuSans-32"/>
       <use x="215.722656" xlink:href="#DejaVuSans-105"/>
       <use x="243.505859" xlink:href="#DejaVuSans-110"/>
       <use x="306.884766" xlink:href="#DejaVuSans-99"/>
       <use x="361.865234" xlink:href="#DejaVuSans-32"/>
       <use x="393.652344" xlink:href="#DejaVuSans-54"/>
       <use x="457.275391" xlink:href="#DejaVuSans-100"/>
      </g>
     </g>
    </g>
    <g id="xtick_12">
     <g id="line2d_23">
      <path clip-path="url(#p3f9b307db3)" d="M 431.504091 272.810464 
L 431.504091 26.88 
" style="fill:none;stroke:#b0b0b0;stroke-linecap:square;stroke-width:0.8;"/>
     </g>
     <g id="line2d_24">
      <g>
       <use style="stroke:#000000;stroke-width:0.8;" x="431.504091" xlink:href="#mf44dbbb3bd" y="272.810464"/>
      </g>
     </g>
     <g id="text_12">
      <!-- today, 2020-05-16 -->
      <defs>
       <path d="M 18.3125 70.21875 
L 18.3125 54.6875 
L 36.8125 54.6875 
L 36.8125 47.703125 
L 18.3125 47.703125 
L 18.3125 18.015625 
Q 18.3125 11.328125 20.140625 9.421875 
Q 21.96875 7.515625 27.59375 7.515625 
L 36.8125 7.515625 
L 36.8125 0 
L 27.59375 0 
Q 17.1875 0 13.234375 3.875 
Q 9.28125 7.765625 9.28125 18.015625 
L 9.28125 47.703125 
L 2.6875 47.703125 
L 2.6875 54.6875 
L 9.28125 54.6875 
L 9.28125 70.21875 
z
" id="DejaVuSans-116"/>
       <path d="M 30.609375 48.390625 
Q 23.390625 48.390625 19.1875 42.75 
Q 14.984375 37.109375 14.984375 27.296875 
Q 14.984375 17.484375 19.15625 11.84375 
Q 23.34375 6.203125 30.609375 6.203125 
Q 37.796875 6.203125 41.984375 11.859375 
Q 46.1875 17.53125 46.1875 27.296875 
Q 46.1875 37.015625 41.984375 42.703125 
Q 37.796875 48.390625 30.609375 48.390625 
z
M 30.609375 56 
Q 42.328125 56 49.015625 48.375 
Q 55.71875 40.765625 55.71875 27.296875 
Q 55.71875 13.875 49.015625 6.21875 
Q 42.328125 -1.421875 30.609375 -1.421875 
Q 18.84375 -1.421875 12.171875 6.21875 
Q 5.515625 13.875 5.515625 27.296875 
Q 5.515625 40.765625 12.171875 48.375 
Q 18.84375 56 30.609375 56 
z
" id="DejaVuSans-111"/>
       <path d="M 32.171875 -5.078125 
Q 28.375 -14.84375 24.75 -17.8125 
Q 21.140625 -20.796875 15.09375 -20.796875 
L 7.90625 -20.796875 
L 7.90625 -13.28125 
L 13.1875 -13.28125 
Q 16.890625 -13.28125 18.9375 -11.515625 
Q 21 -9.765625 23.484375 -3.21875 
L 25.09375 0.875 
L 2.984375 54.6875 
L 12.5 54.6875 
L 29.59375 11.921875 
L 46.6875 54.6875 
L 56.203125 54.6875 
z
" id="DejaVuSans-121"/>
       <path d="M 11.71875 12.40625 
L 22.015625 12.40625 
L 22.015625 4 
L 14.015625 -11.625 
L 7.71875 -11.625 
L 11.71875 4 
z
" id="DejaVuSans-44"/>
      </defs>
      <g transform="translate(350.005074 332.844029)rotate(-30)scale(0.1 -0.1)">
       <use xlink:href="#DejaVuSans-116"/>
       <use x="39.208984" xlink:href="#DejaVuSans-111"/>
       <use x="100.390625" xlink:href="#DejaVuSans-100"/>
       <use x="163.867188" xlink:href="#DejaVuSans-97"/>
       <use x="225.146484" xlink:href="#DejaVuSans-121"/>
       <use x="284.326172" xlink:href="#DejaVuSans-44"/>
       <use x="316.113281" xlink:href="#DejaVuSans-32"/>
       <use x="347.900391" xlink:href="#DejaVuSans-50"/>
       <use x="411.523438" xlink:href="#DejaVuSans-48"/>
       <use x="475.146484" xlink:href="#DejaVuSans-50"/>
       <use x="538.769531" xlink:href="#DejaVuSans-48"/>
       <use x="602.392578" xlink:href="#DejaVuSans-45"/>
       <use x="638.476562" xlink:href="#DejaVuSans-48"/>
       <use x="702.099609" xlink:href="#DejaVuSans-53"/>
       <use x="765.722656" xlink:href="#DejaVuSans-45"/>
       <use x="801.806641" xlink:href="#DejaVuSans-49"/>
       <use x="865.429688" xlink:href="#DejaVuSans-54"/>
      </g>
     </g>
    </g>
   </g>
   <g id="matplotlib.axis_2">
    <g id="ytick_1">
     <g id="line2d_25">
      <path clip-path="url(#p3f9b307db3)" d="M 43.09 261.654843 
L 450 261.654843 
" style="fill:none;stroke:#b0b0b0;stroke-linecap:square;stroke-width:0.8;"/>
     </g>
     <g id="line2d_26">
      <defs>
       <path d="M 0 0 
L -3.5 0 
" id="mc935154fdc" style="stroke:#000000;stroke-width:0.8;"/>
      </defs>
      <g>
       <use style="stroke:#000000;stroke-width:0.8;" x="43.09" xlink:href="#mc935154fdc" y="261.654843"/>
      </g>
     </g>
     <g id="text_13">
      <!-- 0 -->
      <g transform="translate(29.7275 265.454062)scale(0.1 -0.1)">
       <use xlink:href="#DejaVuSans-48"/>
      </g>
     </g>
    </g>
    <g id="ytick_2">
     <g id="line2d_27">
      <path clip-path="url(#p3f9b307db3)" d="M 43.09 229.403843 
L 450 229.403843 
" style="fill:none;stroke:#b0b0b0;stroke-linecap:square;stroke-width:0.8;"/>
     </g>
     <g id="line2d_28">
      <g>
       <use style="stroke:#000000;stroke-width:0.8;" x="43.09" xlink:href="#mc935154fdc" y="229.403843"/>
      </g>
     </g>
     <g id="text_14">
      <!-- 1000 -->
      <g transform="translate(10.64 233.203061)scale(0.1 -0.1)">
       <use xlink:href="#DejaVuSans-49"/>
       <use x="63.623047" xlink:href="#DejaVuSans-48"/>
       <use x="127.246094" xlink:href="#DejaVuSans-48"/>
       <use x="190.869141" xlink:href="#DejaVuSans-48"/>
      </g>
     </g>
    </g>
    <g id="ytick_3">
     <g id="line2d_29">
      <path clip-path="url(#p3f9b307db3)" d="M 43.09 197.152842 
L 450 197.152842 
" style="fill:none;stroke:#b0b0b0;stroke-linecap:square;stroke-width:0.8;"/>
     </g>
     <g id="line2d_30">
      <g>
       <use style="stroke:#000000;stroke-width:0.8;" x="43.09" xlink:href="#mc935154fdc" y="197.152842"/>
      </g>
     </g>
     <g id="text_15">
      <!-- 2000 -->
      <g transform="translate(10.64 200.952061)scale(0.1 -0.1)">
       <use xlink:href="#DejaVuSans-50"/>
       <use x="63.623047" xlink:href="#DejaVuSans-48"/>
       <use x="127.246094" xlink:href="#DejaVuSans-48"/>
       <use x="190.869141" xlink:href="#DejaVuSans-48"/>
      </g>
     </g>
    </g>
    <g id="ytick_4">
     <g id="line2d_31">
      <path clip-path="url(#p3f9b307db3)" d="M 43.09 164.901842 
L 450 164.901842 
" style="fill:none;stroke:#b0b0b0;stroke-linecap:square;stroke-width:0.8;"/>
     </g>
     <g id="line2d_32">
      <g>
       <use style="stroke:#000000;stroke-width:0.8;" x="43.09" xlink:href="#mc935154fdc" y="164.901842"/>
      </g>
     </g>
     <g id="text_16">
      <!-- 3000 -->
      <g transform="translate(10.64 168.701061)scale(0.1 -0.1)">
       <use xlink:href="#DejaVuSans-51"/>
       <use x="63.623047" xlink:href="#DejaVuSans-48"/>
       <use x="127.246094" xlink:href="#DejaVuSans-48"/>
       <use x="190.869141" xlink:href="#DejaVuSans-48"/>
      </g>
     </g>
    </g>
    <g id="ytick_5">
     <g id="line2d_33">
      <path clip-path="url(#p3f9b307db3)" d="M 43.09 132.650841 
L 450 132.650841 
" style="fill:none;stroke:#b0b0b0;stroke-linecap:square;stroke-width:0.8;"/>
     </g>
     <g id="line2d_34">
      <g>
       <use style="stroke:#000000;stroke-width:0.8;" x="43.09" xlink:href="#mc935154fdc" y="132.650841"/>
      </g>
     </g>
     <g id="text_17">
      <!-- 4000 -->
      <g transform="translate(10.64 136.45006)scale(0.1 -0.1)">
       <use xlink:href="#DejaVuSans-52"/>
       <use x="63.623047" xlink:href="#DejaVuSans-48"/>
       <use x="127.246094" xlink:href="#DejaVuSans-48"/>
       <use x="190.869141" xlink:href="#DejaVuSans-48"/>
      </g>
     </g>
    </g>
    <g id="ytick_6">
     <g id="line2d_35">
      <path clip-path="url(#p3f9b307db3)" d="M 43.09 100.399841 
L 450 100.399841 
" style="fill:none;stroke:#b0b0b0;stroke-linecap:square;stroke-width:0.8;"/>
     </g>
     <g id="line2d_36">
      <g>
       <use style="stroke:#000000;stroke-width:0.8;" x="43.09" xlink:href="#mc935154fdc" y="100.399841"/>
      </g>
     </g>
     <g id="text_18">
      <!-- 5000 -->
      <g transform="translate(10.64 104.19906)scale(0.1 -0.1)">
       <use xlink:href="#DejaVuSans-53"/>
       <use x="63.623047" xlink:href="#DejaVuSans-48"/>
       <use x="127.246094" xlink:href="#DejaVuSans-48"/>
       <use x="190.869141" xlink:href="#DejaVuSans-48"/>
      </g>
     </g>
    </g>
    <g id="ytick_7">
     <g id="line2d_37">
      <path clip-path="url(#p3f9b307db3)" d="M 43.09 68.148841 
L 450 68.148841 
" style="fill:none;stroke:#b0b0b0;stroke-linecap:square;stroke-width:0.8;"/>
     </g>
     <g id="line2d_38">
      <g>
       <use style="stroke:#000000;stroke-width:0.8;" x="43.09" xlink:href="#mc935154fdc" y="68.148841"/>
      </g>
     </g>
     <g id="text_19">
      <!-- 6000 -->
      <g transform="translate(10.64 71.94806)scale(0.1 -0.1)">
       <use xlink:href="#DejaVuSans-54"/>
       <use x="63.623047" xlink:href="#DejaVuSans-48"/>
       <use x="127.246094" xlink:href="#DejaVuSans-48"/>
       <use x="190.869141" xlink:href="#DejaVuSans-48"/>
      </g>
     </g>
    </g>
    <g id="ytick_8">
     <g id="line2d_39">
      <path clip-path="url(#p3f9b307db3)" d="M 43.09 35.89784 
L 450 35.89784 
" style="fill:none;stroke:#b0b0b0;stroke-linecap:square;stroke-width:0.8;"/>
     </g>
     <g id="line2d_40">
      <g>
       <use style="stroke:#000000;stroke-width:0.8;" x="43.09" xlink:href="#mc935154fdc" y="35.89784"/>
      </g>
     </g>
     <g id="text_20">
      <!-- 7000 -->
      <defs>
       <path d="M 8.203125 72.90625 
L 55.078125 72.90625 
L 55.078125 68.703125 
L 28.609375 0 
L 18.3125 0 
L 43.21875 64.59375 
L 8.203125 64.59375 
z
" id="DejaVuSans-55"/>
      </defs>
      <g transform="translate(10.64 39.697059)scale(0.1 -0.1)">
       <use xlink:href="#DejaVuSans-55"/>
       <use x="63.623047" xlink:href="#DejaVuSans-48"/>
       <use x="127.246094" xlink:href="#DejaVuSans-48"/>
       <use x="190.869141" xlink:href="#DejaVuSans-48"/>
      </g>
     </g>
    </g>
   </g>
   <g id="line2d_41">
    <path clip-path="url(#p3f9b307db3)" d="M 103.14975 261.042074 
L 107.306134 261.590341 
L 111.462518 260.655062 
L 115.618902 260.010042 
L 119.775286 260.719564 
L 123.93167 260.461556 
L 128.088054 259.526277 
L 132.244438 254.559623 
L 136.400822 255.591655 
L 140.557206 257.494464 
L 144.71359 253.882352 
L 148.869974 257.268707 
L 153.026359 252.592312 
L 157.182743 247.109642 
L 161.339127 256.172173 
L 165.495511 210.149995 
L 169.651895 232.306433 
L 173.808279 222.631132 
L 177.964663 214.020115 
L 182.121047 197.636607 
L 186.277431 162.644272 
L 190.433815 165.127599 
L 194.590199 115.622313 
L 198.746583 185.381227 
L 202.902967 175.867182 
L 207.059351 126.748908 
L 211.215735 134.908412 
L 215.37212 121.782254 
L 219.528504 48.314476 
L 223.684888 38.058657 
L 227.841272 41.574016 
L 231.997656 119.750441 
L 236.15404 107.172551 
L 240.310424 102.883168 
L 244.466808 66.084777 
L 248.623192 38.413418 
L 252.779576 56.377226 
L 256.93596 102.560658 
L 261.092344 131.65106 
L 265.248728 156.806841 
L 269.405112 123.330302 
L 273.561496 79.984958 
L 277.71788 104.108706 
L 281.874265 132.973351 
L 286.030649 173.383855 
L 290.187033 166.643396 
L 294.343417 190.122124 
L 298.499801 220.147805 
L 302.656185 152.194948 
L 306.812569 166.675647 
L 310.968953 142.358393 
L 315.125337 198.926647 
L 319.281721 202.2485 
L 323.438105 200.990711 
L 327.594489 222.115116 
L 331.750873 185.639235 
L 335.907257 181.640111 
L 340.063641 201.345472 
L 344.220026 212.826828 
L 348.37641 221.115335 
L 352.532794 229.790855 
L 356.689178 224.437188 
L 360.845562 209.182465 
L 365.001946 214.245872 
L 369.15833 227.210775 
L 373.314714 232.951453 
L 377.471098 239.175896 
L 381.627482 245.916355 
L 385.783866 234.080238 
L 389.94025 224.404937 
L 394.096634 220.760574 
L 398.253018 224.308184 
L 402.409402 237.918107 
L 406.565787 243.755538 
L 410.722171 239.175896 
L 414.878555 242.465498 
L 419.034939 231.758166 
L 423.191323 249.399463 
L 427.347707 237.305338 
L 431.504091 244.916574 
" style="fill:none;stroke:#1f77b4;stroke-linecap:square;stroke-width:1.5;"/>
   </g>
   <g id="line2d_42">
    <path clip-path="url(#p3f9b307db3)" d="M 90.680598 261.604163 
L 94.836982 261.516624 
L 98.993366 261.50741 
L 103.14975 261.364584 
L 107.306134 261.129612 
L 111.462518 260.996001 
L 115.618902 260.830139 
L 119.775286 260.572131 
L 123.93167 259.646066 
L 128.088054 258.789111 
L 132.244438 258.337597 
L 136.400822 257.462213 
L 140.557206 256.969233 
L 144.71359 255.845056 
L 148.869974 254.071251 
L 153.026359 254.301615 
L 157.182743 247.809949 
L 161.339127 244.211659 
L 165.495511 239.747199 
L 169.651895 233.568829 
L 173.808279 225.718014 
L 177.964663 213.651533 
L 182.121047 200.645165 
L 186.277431 187.14121 
L 190.433815 180.437609 
L 194.590199 173.757045 
L 198.746583 161.28973 
L 202.902967 152.328559 
L 207.059351 146.491128 
L 211.215735 129.803539 
L 215.37212 118.723017 
L 219.528504 98.179129 
L 223.684888 90.162452 
L 227.841272 87.36583 
L 231.997656 82.790795 
L 236.15404 74.834012 
L 240.310424 73.419576 
L 244.466808 76.036514 
L 248.623192 84.748891 
L 252.779576 86.44898 
L 256.93596 93.539593 
L 261.092344 96.460612 
L 265.248728 98.446352 
L 269.405112 107.831393 
L 273.561496 118.773697 
L 277.71788 128.891296 
L 281.874265 133.890201 
L 286.030649 138.649528 
L 290.187033 152.480599 
L 294.343417 162.796312 
L 298.499801 171.734447 
L 302.656185 173.075167 
L 306.812569 176.724137 
L 310.968953 181.810581 
L 315.125337 183.363236 
L 319.281721 183.64428 
L 323.438105 188.422036 
L 327.594489 190.559816 
L 331.750873 198.986542 
L 335.907257 200.972282 
L 340.063641 203.667544 
L 344.220026 207.78185 
L 348.37641 208.113575 
L 352.532794 211.476894 
L 356.689178 216.13486 
L 360.845562 219.829903 
L 365.001946 222.704849 
L 369.15833 225.284929 
L 373.314714 227.588572 
L 377.471098 228.96615 
L 381.627482 231.140789 
L 385.783866 232.071461 
L 389.94025 231.656805 
L 394.096634 232.366327 
L 398.253018 233.020562 
L 402.409402 232.057639 
L 406.565787 233.255533 
L 410.722171 234.305995 
L 414.878555 238.397264 
L 419.034939 240.254001 
" style="fill:none;stroke:#ff7f0e;stroke-linecap:square;stroke-width:1.5;"/>
   </g>
   <g id="line2d_43">
    <path clip-path="url(#p3f9b307db3)" d="M 74.055061 261.629503 
L 78.211445 261.585734 
L 82.367829 261.581126 
L 86.524213 261.509713 
L 90.680598 261.392228 
L 94.836982 261.325422 
L 98.993366 261.240187 
L 103.14975 261.088147 
L 107.306134 260.581345 
L 111.462518 260.14826 
L 115.618902 259.851091 
L 119.775286 259.295913 
L 123.93167 258.982617 
L 128.088054 258.337597 
L 132.244438 257.321691 
L 136.400822 256.973841 
L 140.557206 253.29953 
L 144.71359 251.274628 
L 148.869974 248.604706 
L 153.026359 245.269031 
L 157.182743 240.781535 
L 161.339127 233.861392 
L 165.495511 227.47339 
L 169.651895 217.47558 
L 173.808279 212.324634 
L 177.964663 206.752122 
L 182.121047 197.429279 
L 186.277431 189.023286 
L 190.433815 180.07133 
L 194.590199 165.224352 
L 198.746583 152.932113 
L 202.902967 139.308369 
L 207.059351 131.959749 
L 211.215735 124.32778 
L 215.37212 117.559677 
L 219.528504 110.66257 
L 223.684888 101.611557 
L 227.841272 97.379765 
L 231.997656 91.46401 
L 236.15404 88.305716 
L 240.310424 90.452711 
L 244.466808 89.625703 
L 248.623192 86.640182 
L 252.779576 90.625484 
L 256.93596 97.405105 
L 261.092344 106.820094 
L 265.248728 110.169591 
L 269.405112 116.09456 
L 273.561496 124.470606 
L 277.71788 130.621332 
L 281.874265 139.78292 
L 286.030649 145.924432 
L 290.187033 152.807717 
L 294.343417 157.850391 
L 298.499801 161.006382 
L 302.656185 168.06244 
L 306.812569 175.609174 
L 310.968953 181.147131 
L 315.125337 186.030854 
L 319.281721 188.84821 
L 323.438105 192.739062 
L 327.594489 195.572543 
L 331.750873 195.878928 
L 335.907257 199.949465 
L 340.063641 203.347338 
L 344.220026 209.408222 
L 348.37641 211.838566 
L 352.532794 214.476237 
L 356.689178 217.685211 
L 360.845562 218.539863 
L 365.001946 221.308841 
L 369.15833 224.10316 
L 373.314714 225.743354 
L 377.471098 227.535588 
L 381.627482 229.152745 
L 385.783866 229.823106 
L 389.94025 231.110842 
L 394.096634 232.723392 
L 398.253018 235.234363 
L 402.409402 235.955403 
" style="fill:none;stroke:#2ca02c;stroke-linecap:square;stroke-width:1.5;"/>
   </g>
   <g id="line2d_44">
    <path clip-path="url(#p3f9b307db3)" d="M 61.585909 261.631806 
L 65.742293 261.602627 
L 69.898677 261.601091 
L 74.055061 261.553483 
L 78.211445 261.476695 
L 82.367829 261.432157 
L 86.524213 261.378406 
L 90.680598 261.277045 
L 94.836982 260.939178 
L 98.993366 260.650455 
L 103.14975 260.452341 
L 107.306134 260.082223 
L 111.462518 259.873359 
L 115.618902 259.44181 
L 119.775286 258.749181 
L 123.93167 258.488102 
L 128.088054 256.03549 
L 132.244438 254.637947 
L 136.400822 252.779675 
L 140.557206 250.511354 
L 144.71359 247.464403 
L 148.869974 242.764971 
L 153.026359 238.197615 
L 157.182743 231.246757 
L 161.339127 227.662289 
L 165.495511 223.655486 
L 169.651895 217.275931 
L 173.808279 211.297209 
L 177.964663 204.73797 
L 182.121047 194.916773 
L 186.277431 184.558059 
L 190.433815 174.276133 
L 194.590199 167.888899 
L 198.746583 160.741463 
L 202.902967 153.612456 
L 207.059351 144.992224 
L 211.215735 134.62276 
L 215.37212 127.300247 
L 219.528504 121.121877 
L 223.684888 116.789492 
L 227.841272 114.065051 
L 231.997656 110.526655 
L 236.15404 106.590497 
L 240.310424 103.684836 
L 244.466808 104.511076 
L 248.623192 103.939772 
L 252.779576 103.500544 
L 256.93596 106.518317 
L 261.092344 110.577335 
L 265.248728 112.025559 
L 269.405112 117.661805 
L 273.561496 122.628459 
L 277.71788 130.121442 
L 281.874265 134.049921 
L 286.030649 138.517452 
L 290.187033 144.195164 
L 294.343417 149.888233 
L 298.499801 156.708552 
L 302.656185 163.611802 
L 306.812569 168.862572 
L 310.968953 173.122775 
L 315.125337 176.598205 
L 319.281721 181.412818 
L 323.438105 187.565081 
L 327.594489 192.809707 
L 331.750873 197.297204 
L 335.907257 200.133756 
L 340.063641 203.587685 
L 344.220026 206.244553 
L 348.37641 206.908002 
L 352.532794 210.346573 
L 356.689178 212.922046 
L 360.845562 216.824417 
L 365.001946 218.681153 
L 369.15833 220.657678 
L 373.314714 222.476021 
L 377.471098 223.445086 
L 381.627482 225.641226 
L 385.783866 228.867862 
L 389.94025 230.580236 
" style="fill:none;stroke:#d62728;stroke-linecap:square;stroke-width:1.5;"/>
   </g>
   <g id="patch_3">
    <path d="M 43.09 272.810464 
L 43.09 26.88 
" style="fill:none;stroke:#000000;stroke-linecap:square;stroke-linejoin:miter;stroke-width:0.8;"/>
   </g>
   <g id="patch_4">
    <path d="M 450 272.810464 
L 450 26.88 
" style="fill:none;stroke:#000000;stroke-linecap:square;stroke-linejoin:miter;stroke-width:0.8;"/>
   </g>
   <g id="patch_5">
    <path d="M 43.09 272.810464 
L 450 272.810464 
" style="fill:none;stroke:#000000;stroke-linecap:square;stroke-linejoin:miter;stroke-width:0.8;"/>
   </g>
   <g id="patch_6">
    <path d="M 43.09 26.88 
L 450 26.88 
" style="fill:none;stroke:#000000;stroke-linecap:square;stroke-linejoin:miter;stroke-width:0.8;"/>
   </g>
   <g id="text_21">
    <!-- Germany diffs -->
    <defs>
     <path d="M 59.515625 10.40625 
L 59.515625 29.984375 
L 43.40625 29.984375 
L 43.40625 38.09375 
L 69.28125 38.09375 
L 69.28125 6.78125 
Q 63.578125 2.734375 56.6875 0.65625 
Q 49.8125 -1.421875 42 -1.421875 
Q 24.90625 -1.421875 15.25 8.5625 
Q 5.609375 18.5625 5.609375 36.375 
Q 5.609375 54.25 15.25 64.234375 
Q 24.90625 74.21875 42 74.21875 
Q 49.125 74.21875 55.546875 72.453125 
Q 61.96875 70.703125 67.390625 67.28125 
L 67.390625 56.78125 
Q 61.921875 61.421875 55.765625 63.765625 
Q 49.609375 66.109375 42.828125 66.109375 
Q 29.4375 66.109375 22.71875 58.640625 
Q 16.015625 51.171875 16.015625 36.375 
Q 16.015625 21.625 22.71875 14.15625 
Q 29.4375 6.6875 42.828125 6.6875 
Q 48.046875 6.6875 52.140625 7.59375 
Q 56.25 8.5 59.515625 10.40625 
z
" id="DejaVuSans-71"/>
     <path d="M 56.203125 29.59375 
L 56.203125 25.203125 
L 14.890625 25.203125 
Q 15.484375 15.921875 20.484375 11.0625 
Q 25.484375 6.203125 34.421875 6.203125 
Q 39.59375 6.203125 44.453125 7.46875 
Q 49.3125 8.734375 54.109375 11.28125 
L 54.109375 2.78125 
Q 49.265625 0.734375 44.1875 -0.34375 
Q 39.109375 -1.421875 33.890625 -1.421875 
Q 20.796875 -1.421875 13.15625 6.1875 
Q 5.515625 13.8125 5.515625 26.8125 
Q 5.515625 40.234375 12.765625 48.109375 
Q 20.015625 56 32.328125 56 
Q 43.359375 56 49.78125 48.890625 
Q 56.203125 41.796875 56.203125 29.59375 
z
M 47.21875 32.234375 
Q 47.125 39.59375 43.09375 43.984375 
Q 39.0625 48.390625 32.421875 48.390625 
Q 24.90625 48.390625 20.390625 44.140625 
Q 15.875 39.890625 15.1875 32.171875 
z
" id="DejaVuSans-101"/>
     <path d="M 41.109375 46.296875 
Q 39.59375 47.171875 37.8125 47.578125 
Q 36.03125 48 33.890625 48 
Q 26.265625 48 22.1875 43.046875 
Q 18.109375 38.09375 18.109375 28.8125 
L 18.109375 0 
L 9.078125 0 
L 9.078125 54.6875 
L 18.109375 54.6875 
L 18.109375 46.1875 
Q 20.953125 51.171875 25.484375 53.578125 
Q 30.03125 56 36.53125 56 
Q 37.453125 56 38.578125 55.875 
Q 39.703125 55.765625 41.0625 55.515625 
z
" id="DejaVuSans-114"/>
     <path d="M 37.109375 75.984375 
L 37.109375 68.5 
L 28.515625 68.5 
Q 23.6875 68.5 21.796875 66.546875 
Q 19.921875 64.59375 19.921875 59.515625 
L 19.921875 54.6875 
L 34.71875 54.6875 
L 34.71875 47.703125 
L 19.921875 47.703125 
L 19.921875 0 
L 10.890625 0 
L 10.890625 47.703125 
L 2.296875 47.703125 
L 2.296875 54.6875 
L 10.890625 54.6875 
L 10.890625 58.5 
Q 10.890625 67.625 15.140625 71.796875 
Q 19.390625 75.984375 28.609375 75.984375 
z
" id="DejaVuSans-102"/>
     <path d="M 44.28125 53.078125 
L 44.28125 44.578125 
Q 40.484375 46.53125 36.375 47.5 
Q 32.28125 48.484375 27.875 48.484375 
Q 21.1875 48.484375 17.84375 46.4375 
Q 14.5 44.390625 14.5 40.28125 
Q 14.5 37.15625 16.890625 35.375 
Q 19.28125 33.59375 26.515625 31.984375 
L 29.59375 31.296875 
Q 39.15625 29.25 43.1875 25.515625 
Q 47.21875 21.78125 47.21875 15.09375 
Q 47.21875 7.46875 41.1875 3.015625 
Q 35.15625 -1.421875 24.609375 -1.421875 
Q 20.21875 -1.421875 15.453125 -0.5625 
Q 10.6875 0.296875 5.421875 2 
L 5.421875 11.28125 
Q 10.40625 8.6875 15.234375 7.390625 
Q 20.0625 6.109375 24.8125 6.109375 
Q 31.15625 6.109375 34.5625 8.28125 
Q 37.984375 10.453125 37.984375 14.40625 
Q 37.984375 18.0625 35.515625 20.015625 
Q 33.0625 21.96875 24.703125 23.78125 
L 21.578125 24.515625 
Q 13.234375 26.265625 9.515625 29.90625 
Q 5.8125 33.546875 5.8125 39.890625 
Q 5.8125 47.609375 11.28125 51.796875 
Q 16.75 56 26.8125 56 
Q 31.78125 56 36.171875 55.265625 
Q 40.578125 54.546875 44.28125 53.078125 
z
" id="DejaVuSans-115"/>
    </defs>
    <g transform="translate(204.234688 20.88)scale(0.12 -0.12)">
     <use xlink:href="#DejaVuSans-71"/>
     <use x="77.490234" xlink:href="#DejaVuSans-101"/>
     <use x="139.013672" xlink:href="#DejaVuSans-114"/>
     <use x="178.376953" xlink:href="#DejaVuSans-109"/>
     <use x="275.789062" xlink:href="#DejaVuSans-97"/>
     <use x="337.068359" xlink:href="#DejaVuSans-110"/>
     <use x="400.447266" xlink:href="#DejaVuSans-121"/>
     <use x="459.626953" xlink:href="#DejaVuSans-32"/>
     <use x="491.414062" xlink:href="#DejaVuSans-100"/>
     <use x="554.890625" xlink:href="#DejaVuSans-105"/>
     <use x="582.673828" xlink:href="#DejaVuSans-102"/>
     <use x="617.878906" xlink:href="#DejaVuSans-102"/>
     <use x="653.083984" xlink:href="#DejaVuSans-115"/>
    </g>
   </g>
   <g id="legend_1">
    <g id="patch_7">
     <path d="M 308.96875 93.5925 
L 443 93.5925 
Q 445 93.5925 445 91.5925 
L 445 33.88 
Q 445 31.88 443 31.88 
L 308.96875 31.88 
Q 306.96875 31.88 306.96875 33.88 
L 306.96875 91.5925 
Q 306.96875 93.5925 308.96875 93.5925 
z
" style="fill:#ffffff;opacity:0.8;stroke:#cccccc;stroke-linejoin:miter;"/>
    </g>
    <g id="line2d_45">
     <path d="M 310.96875 39.978438 
L 330.96875 39.978438 
" style="fill:none;stroke:#1f77b4;stroke-linecap:square;stroke-width:1.5;"/>
    </g>
    <g id="line2d_46"/>
    <g id="text_22">
     <!-- diffs -->
     <g transform="translate(338.96875 43.478438)scale(0.1 -0.1)">
      <use xlink:href="#DejaVuSans-100"/>
      <use x="63.476562" xlink:href="#DejaVuSans-105"/>
      <use x="91.259766" xlink:href="#DejaVuSans-102"/>
      <use x="126.464844" xlink:href="#DejaVuSans-102"/>
      <use x="161.669922" xlink:href="#DejaVuSans-115"/>
     </g>
    </g>
    <g id="line2d_47">
     <path d="M 310.96875 54.656563 
L 330.96875 54.656563 
" style="fill:none;stroke:#ff7f0e;stroke-linecap:square;stroke-width:1.5;"/>
    </g>
    <g id="line2d_48"/>
    <g id="text_23">
     <!-- one week avg diffs -->
     <defs>
      <path d="M 4.203125 54.6875 
L 13.1875 54.6875 
L 24.421875 12.015625 
L 35.59375 54.6875 
L 46.1875 54.6875 
L 57.421875 12.015625 
L 68.609375 54.6875 
L 77.59375 54.6875 
L 63.28125 0 
L 52.6875 0 
L 40.921875 44.828125 
L 29.109375 0 
L 18.5 0 
z
" id="DejaVuSans-119"/>
      <path d="M 9.078125 75.984375 
L 18.109375 75.984375 
L 18.109375 31.109375 
L 44.921875 54.6875 
L 56.390625 54.6875 
L 27.390625 29.109375 
L 57.625 0 
L 45.90625 0 
L 18.109375 26.703125 
L 18.109375 0 
L 9.078125 0 
z
" id="DejaVuSans-107"/>
     </defs>
     <g transform="translate(338.96875 58.156563)scale(0.1 -0.1)">
      <use xlink:href="#DejaVuSans-111"/>
      <use x="61.181641" xlink:href="#DejaVuSans-110"/>
      <use x="124.560547" xlink:href="#DejaVuSans-101"/>
      <use x="186.083984" xlink:href="#DejaVuSans-32"/>
      <use x="217.871094" xlink:href="#DejaVuSans-119"/>
      <use x="299.658203" xlink:href="#DejaVuSans-101"/>
      <use x="361.181641" xlink:href="#DejaVuSans-101"/>
      <use x="422.705078" xlink:href="#DejaVuSans-107"/>
      <use x="480.615234" xlink:href="#DejaVuSans-32"/>
      <use x="512.402344" xlink:href="#DejaVuSans-97"/>
      <use x="573.681641" xlink:href="#DejaVuSans-118"/>
      <use x="632.861328" xlink:href="#DejaVuSans-103"/>
      <use x="696.337891" xlink:href="#DejaVuSans-32"/>
      <use x="728.125" xlink:href="#DejaVuSans-100"/>
      <use x="791.601562" xlink:href="#DejaVuSans-105"/>
      <use x="819.384766" xlink:href="#DejaVuSans-102"/>
      <use x="854.589844" xlink:href="#DejaVuSans-102"/>
      <use x="889.794922" xlink:href="#DejaVuSans-115"/>
     </g>
    </g>
    <g id="line2d_49">
     <path d="M 310.96875 69.334688 
L 330.96875 69.334688 
" style="fill:none;stroke:#2ca02c;stroke-linecap:square;stroke-width:1.5;"/>
    </g>
    <g id="line2d_50"/>
    <g id="text_24">
     <!-- two week avg diffs -->
     <g transform="translate(338.96875 72.834688)scale(0.1 -0.1)">
      <use xlink:href="#DejaVuSans-116"/>
      <use x="39.208984" xlink:href="#DejaVuSans-119"/>
      <use x="120.996094" xlink:href="#DejaVuSans-111"/>
      <use x="182.177734" xlink:href="#DejaVuSans-32"/>
      <use x="213.964844" xlink:href="#DejaVuSans-119"/>
      <use x="295.751953" xlink:href="#DejaVuSans-101"/>
      <use x="357.275391" xlink:href="#DejaVuSans-101"/>
      <use x="418.798828" xlink:href="#DejaVuSans-107"/>
      <use x="476.708984" xlink:href="#DejaVuSans-32"/>
      <use x="508.496094" xlink:href="#DejaVuSans-97"/>
      <use x="569.775391" xlink:href="#DejaVuSans-118"/>
      <use x="628.955078" xlink:href="#DejaVuSans-103"/>
      <use x="692.431641" xlink:href="#DejaVuSans-32"/>
      <use x="724.21875" xlink:href="#DejaVuSans-100"/>
      <use x="787.695312" xlink:href="#DejaVuSans-105"/>
      <use x="815.478516" xlink:href="#DejaVuSans-102"/>
      <use x="850.683594" xlink:href="#DejaVuSans-102"/>
      <use x="885.888672" xlink:href="#DejaVuSans-115"/>
     </g>
    </g>
    <g id="line2d_51">
     <path d="M 310.96875 84.012813 
L 330.96875 84.012813 
" style="fill:none;stroke:#d62728;stroke-linecap:square;stroke-width:1.5;"/>
    </g>
    <g id="line2d_52"/>
    <g id="text_25">
     <!-- three week avg diffs -->
     <defs>
      <path d="M 54.890625 33.015625 
L 54.890625 0 
L 45.90625 0 
L 45.90625 32.71875 
Q 45.90625 40.484375 42.875 44.328125 
Q 39.84375 48.1875 33.796875 48.1875 
Q 26.515625 48.1875 22.3125 43.546875 
Q 18.109375 38.921875 18.109375 30.90625 
L 18.109375 0 
L 9.078125 0 
L 9.078125 75.984375 
L 18.109375 75.984375 
L 18.109375 46.1875 
Q 21.34375 51.125 25.703125 53.5625 
Q 30.078125 56 35.796875 56 
Q 45.21875 56 50.046875 50.171875 
Q 54.890625 44.34375 54.890625 33.015625 
z
" id="DejaVuSans-104"/>
     </defs>
     <g transform="translate(338.96875 87.512813)scale(0.1 -0.1)">
      <use xlink:href="#DejaVuSans-116"/>
      <use x="39.208984" xlink:href="#DejaVuSans-104"/>
      <use x="102.587891" xlink:href="#DejaVuSans-114"/>
      <use x="141.451172" xlink:href="#DejaVuSans-101"/>
      <use x="202.974609" xlink:href="#DejaVuSans-101"/>
      <use x="264.498047" xlink:href="#DejaVuSans-32"/>
      <use x="296.285156" xlink:href="#DejaVuSans-119"/>
      <use x="378.072266" xlink:href="#DejaVuSans-101"/>
      <use x="439.595703" xlink:href="#DejaVuSans-101"/>
      <use x="501.119141" xlink:href="#DejaVuSans-107"/>
      <use x="559.029297" xlink:href="#DejaVuSans-32"/>
      <use x="590.816406" xlink:href="#DejaVuSans-97"/>
      <use x="652.095703" xlink:href="#DejaVuSans-118"/>
      <use x="711.275391" xlink:href="#DejaVuSans-103"/>
      <use x="774.751953" xlink:href="#DejaVuSans-32"/>
      <use x="806.539062" xlink:href="#DejaVuSans-100"/>
      <use x="870.015625" xlink:href="#DejaVuSans-105"/>
      <use x="897.798828" xlink:href="#DejaVuSans-102"/>
      <use x="933.003906" xlink:href="#DejaVuSans-102"/>
      <use x="968.208984" xlink:href="#DejaVuSans-115"/>
     </g>
    </g>
   </g>
  </g>
 </g>
 <defs>
  <clipPath id="p3f9b307db3">
   <rect height="245.930464" width="406.91" x="43.09" y="26.88"/>
  </clipPath>
 </defs>
</svg>
