<?xml version="1.0" encoding="utf-8" standalone="no"?>
<!DOCTYPE svg PUBLIC "-//W3C//DTD SVG 1.1//EN"
  "http://www.w3.org/Graphics/SVG/1.1/DTD/svg11.dtd">
<!-- Created with matplotlib (https://matplotlib.org/) -->
<svg height="345.6pt" version="1.1" viewBox="0 0 460.8 345.6" width="460.8pt" xmlns="http://www.w3.org/2000/svg" xmlns:xlink="http://www.w3.org/1999/xlink">
 <defs>
  <style type="text/css">
*{stroke-linecap:butt;stroke-linejoin:round;}
  </style>
 </defs>
 <g id="figure_1">
  <g id="patch_1">
   <path d="M 0 345.6 
L 460.8 345.6 
L 460.8 0 
L 0 0 
z
" style="fill:#ffffff;"/>
  </g>
  <g id="axes_1">
   <g id="patch_2">
    <path d="M 43.09 272.810464 
L 450 272.810464 
L 450 26.88 
L 43.09 26.88 
z
" style="fill:#ffffff;"/>
   </g>
   <g id="matplotlib.axis_1">
    <g id="xtick_1">
     <g id="line2d_1">
      <path clip-path="url(#p9ed4172cd4)" d="M 348.37641 272.810464 
L 348.37641 26.88 
" style="fill:none;stroke:#b0b0b0;stroke-linecap:square;stroke-width:0.8;"/>
     </g>
     <g id="line2d_2">
      <defs>
       <path d="M 0 0 
L 0 3.5 
" id="m813e95bf3f" style="stroke:#000000;stroke-width:0.8;"/>
      </defs>
      <g>
       <use style="stroke:#000000;stroke-width:0.8;" x="348.37641" xlink:href="#m813e95bf3f" y="272.810464"/>
      </g>
     </g>
     <g id="text_1">
      <!-- 2020-04-21 -->
      <defs>
       <path d="M 19.1875 8.296875 
L 53.609375 8.296875 
L 53.609375 0 
L 7.328125 0 
L 7.328125 8.296875 
Q 12.9375 14.109375 22.625 23.890625 
Q 32.328125 33.6875 34.8125 36.53125 
Q 39.546875 41.84375 41.421875 45.53125 
Q 43.3125 49.21875 43.3125 52.78125 
Q 43.3125 58.59375 39.234375 62.25 
Q 35.15625 65.921875 28.609375 65.921875 
Q 23.96875 65.921875 18.8125 64.3125 
Q 13.671875 62.703125 7.8125 59.421875 
L 7.8125 69.390625 
Q 13.765625 71.78125 18.9375 73 
Q 24.125 74.21875 28.421875 74.21875 
Q 39.75 74.21875 46.484375 68.546875 
Q 53.21875 62.890625 53.21875 53.421875 
Q 53.21875 48.921875 51.53125 44.890625 
Q 49.859375 40.875 45.40625 35.40625 
Q 44.1875 33.984375 37.640625 27.21875 
Q 31.109375 20.453125 19.1875 8.296875 
z
" id="DejaVuSans-50"/>
       <path d="M 31.78125 66.40625 
Q 24.171875 66.40625 20.328125 58.90625 
Q 16.5 51.421875 16.5 36.375 
Q 16.5 21.390625 20.328125 13.890625 
Q 24.171875 6.390625 31.78125 6.390625 
Q 39.453125 6.390625 43.28125 13.890625 
Q 47.125 21.390625 47.125 36.375 
Q 47.125 51.421875 43.28125 58.90625 
Q 39.453125 66.40625 31.78125 66.40625 
z
M 31.78125 74.21875 
Q 44.046875 74.21875 50.515625 64.515625 
Q 56.984375 54.828125 56.984375 36.375 
Q 56.984375 17.96875 50.515625 8.265625 
Q 44.046875 -1.421875 31.78125 -1.421875 
Q 19.53125 -1.421875 13.0625 8.265625 
Q 6.59375 17.96875 6.59375 36.375 
Q 6.59375 54.828125 13.0625 64.515625 
Q 19.53125 74.21875 31.78125 74.21875 
z
" id="DejaVuSans-48"/>
       <path d="M 4.890625 31.390625 
L 31.203125 31.390625 
L 31.203125 23.390625 
L 4.890625 23.390625 
z
" id="DejaVuSans-45"/>
       <path d="M 37.796875 64.3125 
L 12.890625 25.390625 
L 37.796875 25.390625 
z
M 35.203125 72.90625 
L 47.609375 72.90625 
L 47.609375 25.390625 
L 58.015625 25.390625 
L 58.015625 17.1875 
L 47.609375 17.1875 
L 47.609375 0 
L 37.796875 0 
L 37.796875 17.1875 
L 4.890625 17.1875 
L 4.890625 26.703125 
z
" id="DejaVuSans-52"/>
       <path d="M 12.40625 8.296875 
L 28.515625 8.296875 
L 28.515625 63.921875 
L 10.984375 60.40625 
L 10.984375 69.390625 
L 28.421875 72.90625 
L 38.28125 72.90625 
L 38.28125 8.296875 
L 54.390625 8.296875 
L 54.390625 0 
L 12.40625 0 
z
" id="DejaVuSans-49"/>
      </defs>
      <g transform="translate(297.006958 315.448716)rotate(-30)scale(0.1 -0.1)">
       <use xlink:href="#DejaVuSans-50"/>
       <use x="63.623047" xlink:href="#DejaVuSans-48"/>
       <use x="127.246094" xlink:href="#DejaVuSans-50"/>
       <use x="190.869141" xlink:href="#DejaVuSans-48"/>
       <use x="254.492188" xlink:href="#DejaVuSans-45"/>
       <use x="290.576172" xlink:href="#DejaVuSans-48"/>
       <use x="354.199219" xlink:href="#DejaVuSans-52"/>
       <use x="417.822266" xlink:href="#DejaVuSans-45"/>
       <use x="453.90625" xlink:href="#DejaVuSans-50"/>
       <use x="517.529297" xlink:href="#DejaVuSans-49"/>
      </g>
     </g>
    </g>
    <g id="xtick_2">
     <g id="line2d_3">
      <path clip-path="url(#p9ed4172cd4)" d="M 319.281721 272.810464 
L 319.281721 26.88 
" style="fill:none;stroke:#b0b0b0;stroke-linecap:square;stroke-width:0.8;"/>
     </g>
     <g id="line2d_4">
      <g>
       <use style="stroke:#000000;stroke-width:0.8;" x="319.281721" xlink:href="#m813e95bf3f" y="272.810464"/>
      </g>
     </g>
     <g id="text_2">
      <!-- 2020-04-14 -->
      <g transform="translate(267.91227 315.448716)rotate(-30)scale(0.1 -0.1)">
       <use xlink:href="#DejaVuSans-50"/>
       <use x="63.623047" xlink:href="#DejaVuSans-48"/>
       <use x="127.246094" xlink:href="#DejaVuSans-50"/>
       <use x="190.869141" xlink:href="#DejaVuSans-48"/>
       <use x="254.492188" xlink:href="#DejaVuSans-45"/>
       <use x="290.576172" xlink:href="#DejaVuSans-48"/>
       <use x="354.199219" xlink:href="#DejaVuSans-52"/>
       <use x="417.822266" xlink:href="#DejaVuSans-45"/>
       <use x="453.90625" xlink:href="#DejaVuSans-49"/>
       <use x="517.529297" xlink:href="#DejaVuSans-52"/>
      </g>
     </g>
    </g>
    <g id="xtick_3">
     <g id="line2d_5">
      <path clip-path="url(#p9ed4172cd4)" d="M 290.187033 272.810464 
L 290.187033 26.88 
" style="fill:none;stroke:#b0b0b0;stroke-linecap:square;stroke-width:0.8;"/>
     </g>
     <g id="line2d_6">
      <g>
       <use style="stroke:#000000;stroke-width:0.8;" x="290.187033" xlink:href="#m813e95bf3f" y="272.810464"/>
      </g>
     </g>
     <g id="text_3">
      <!-- 2020-04-07 -->
      <defs>
       <path d="M 8.203125 72.90625 
L 55.078125 72.90625 
L 55.078125 68.703125 
L 28.609375 0 
L 18.3125 0 
L 43.21875 64.59375 
L 8.203125 64.59375 
z
" id="DejaVuSans-55"/>
      </defs>
      <g transform="translate(238.817581 315.448716)rotate(-30)scale(0.1 -0.1)">
       <use xlink:href="#DejaVuSans-50"/>
       <use x="63.623047" xlink:href="#DejaVuSans-48"/>
       <use x="127.246094" xlink:href="#DejaVuSans-50"/>
       <use x="190.869141" xlink:href="#DejaVuSans-48"/>
       <use x="254.492188" xlink:href="#DejaVuSans-45"/>
       <use x="290.576172" xlink:href="#DejaVuSans-48"/>
       <use x="354.199219" xlink:href="#DejaVuSans-52"/>
       <use x="417.822266" xlink:href="#DejaVuSans-45"/>
       <use x="453.90625" xlink:href="#DejaVuSans-48"/>
       <use x="517.529297" xlink:href="#DejaVuSans-55"/>
      </g>
     </g>
    </g>
    <g id="xtick_4">
     <g id="line2d_7">
      <path clip-path="url(#p9ed4172cd4)" d="M 261.092344 272.810464 
L 261.092344 26.88 
" style="fill:none;stroke:#b0b0b0;stroke-linecap:square;stroke-width:0.8;"/>
     </g>
     <g id="line2d_8">
      <g>
       <use style="stroke:#000000;stroke-width:0.8;" x="261.092344" xlink:href="#m813e95bf3f" y="272.810464"/>
      </g>
     </g>
     <g id="text_4">
      <!-- 2020-03-31 -->
      <defs>
       <path d="M 40.578125 39.3125 
Q 47.65625 37.796875 51.625 33 
Q 55.609375 28.21875 55.609375 21.1875 
Q 55.609375 10.40625 48.1875 4.484375 
Q 40.765625 -1.421875 27.09375 -1.421875 
Q 22.515625 -1.421875 17.65625 -0.515625 
Q 12.796875 0.390625 7.625 2.203125 
L 7.625 11.71875 
Q 11.71875 9.328125 16.59375 8.109375 
Q 21.484375 6.890625 26.8125 6.890625 
Q 36.078125 6.890625 40.9375 10.546875 
Q 45.796875 14.203125 45.796875 21.1875 
Q 45.796875 27.640625 41.28125 31.265625 
Q 36.765625 34.90625 28.71875 34.90625 
L 20.21875 34.90625 
L 20.21875 43.015625 
L 29.109375 43.015625 
Q 36.375 43.015625 40.234375 45.921875 
Q 44.09375 48.828125 44.09375 54.296875 
Q 44.09375 59.90625 40.109375 62.90625 
Q 36.140625 65.921875 28.71875 65.921875 
Q 24.65625 65.921875 20.015625 65.03125 
Q 15.375 64.15625 9.8125 62.3125 
L 9.8125 71.09375 
Q 15.4375 72.65625 20.34375 73.4375 
Q 25.25 74.21875 29.59375 74.21875 
Q 40.828125 74.21875 47.359375 69.109375 
Q 53.90625 64.015625 53.90625 55.328125 
Q 53.90625 49.265625 50.4375 45.09375 
Q 46.96875 40.921875 40.578125 39.3125 
z
" id="DejaVuSans-51"/>
      </defs>
      <g transform="translate(209.722893 315.448716)rotate(-30)scale(0.1 -0.1)">
       <use xlink:href="#DejaVuSans-50"/>
       <use x="63.623047" xlink:href="#DejaVuSans-48"/>
       <use x="127.246094" xlink:href="#DejaVuSans-50"/>
       <use x="190.869141" xlink:href="#DejaVuSans-48"/>
       <use x="254.492188" xlink:href="#DejaVuSans-45"/>
       <use x="290.576172" xlink:href="#DejaVuSans-48"/>
       <use x="354.199219" xlink:href="#DejaVuSans-51"/>
       <use x="417.822266" xlink:href="#DejaVuSans-45"/>
       <use x="453.90625" xlink:href="#DejaVuSans-51"/>
       <use x="517.529297" xlink:href="#DejaVuSans-49"/>
      </g>
     </g>
    </g>
    <g id="xtick_5">
     <g id="line2d_9">
      <path clip-path="url(#p9ed4172cd4)" d="M 231.997656 272.810464 
L 231.997656 26.88 
" style="fill:none;stroke:#b0b0b0;stroke-linecap:square;stroke-width:0.8;"/>
     </g>
     <g id="line2d_10">
      <g>
       <use style="stroke:#000000;stroke-width:0.8;" x="231.997656" xlink:href="#m813e95bf3f" y="272.810464"/>
      </g>
     </g>
     <g id="text_5">
      <!-- 2020-03-24 -->
      <g transform="translate(180.628204 315.448716)rotate(-30)scale(0.1 -0.1)">
       <use xlink:href="#DejaVuSans-50"/>
       <use x="63.623047" xlink:href="#DejaVuSans-48"/>
       <use x="127.246094" xlink:href="#DejaVuSans-50"/>
       <use x="190.869141" xlink:href="#DejaVuSans-48"/>
       <use x="254.492188" xlink:href="#DejaVuSans-45"/>
       <use x="290.576172" xlink:href="#DejaVuSans-48"/>
       <use x="354.199219" xlink:href="#DejaVuSans-51"/>
       <use x="417.822266" xlink:href="#DejaVuSans-45"/>
       <use x="453.90625" xlink:href="#DejaVuSans-50"/>
       <use x="517.529297" xlink:href="#DejaVuSans-52"/>
      </g>
     </g>
    </g>
    <g id="xtick_6">
     <g id="line2d_11">
      <path clip-path="url(#p9ed4172cd4)" d="M 202.902967 272.810464 
L 202.902967 26.88 
" style="fill:none;stroke:#b0b0b0;stroke-linecap:square;stroke-width:0.8;"/>
     </g>
     <g id="line2d_12">
      <g>
       <use style="stroke:#000000;stroke-width:0.8;" x="202.902967" xlink:href="#m813e95bf3f" y="272.810464"/>
      </g>
     </g>
     <g id="text_6">
      <!-- 2020-03-17 -->
      <g transform="translate(151.533516 315.448716)rotate(-30)scale(0.1 -0.1)">
       <use xlink:href="#DejaVuSans-50"/>
       <use x="63.623047" xlink:href="#DejaVuSans-48"/>
       <use x="127.246094" xlink:href="#DejaVuSans-50"/>
       <use x="190.869141" xlink:href="#DejaVuSans-48"/>
       <use x="254.492188" xlink:href="#DejaVuSans-45"/>
       <use x="290.576172" xlink:href="#DejaVuSans-48"/>
       <use x="354.199219" xlink:href="#DejaVuSans-51"/>
       <use x="417.822266" xlink:href="#DejaVuSans-45"/>
       <use x="453.90625" xlink:href="#DejaVuSans-49"/>
       <use x="517.529297" xlink:href="#DejaVuSans-55"/>
      </g>
     </g>
    </g>
    <g id="xtick_7">
     <g id="line2d_13">
      <path clip-path="url(#p9ed4172cd4)" d="M 173.808279 272.810464 
L 173.808279 26.88 
" style="fill:none;stroke:#b0b0b0;stroke-linecap:square;stroke-width:0.8;"/>
     </g>
     <g id="line2d_14">
      <g>
       <use style="stroke:#000000;stroke-width:0.8;" x="173.808279" xlink:href="#m813e95bf3f" y="272.810464"/>
      </g>
     </g>
     <g id="text_7">
      <!-- 2020-03-10 -->
      <g transform="translate(122.438827 315.448716)rotate(-30)scale(0.1 -0.1)">
       <use xlink:href="#DejaVuSans-50"/>
       <use x="63.623047" xlink:href="#DejaVuSans-48"/>
       <use x="127.246094" xlink:href="#DejaVuSans-50"/>
       <use x="190.869141" xlink:href="#DejaVuSans-48"/>
       <use x="254.492188" xlink:href="#DejaVuSans-45"/>
       <use x="290.576172" xlink:href="#DejaVuSans-48"/>
       <use x="354.199219" xlink:href="#DejaVuSans-51"/>
       <use x="417.822266" xlink:href="#DejaVuSans-45"/>
       <use x="453.90625" xlink:href="#DejaVuSans-49"/>
       <use x="517.529297" xlink:href="#DejaVuSans-48"/>
      </g>
     </g>
    </g>
    <g id="xtick_8">
     <g id="line2d_15">
      <path clip-path="url(#p9ed4172cd4)" d="M 144.71359 272.810464 
L 144.71359 26.88 
" style="fill:none;stroke:#b0b0b0;stroke-linecap:square;stroke-width:0.8;"/>
     </g>
     <g id="line2d_16">
      <g>
       <use style="stroke:#000000;stroke-width:0.8;" x="144.71359" xlink:href="#m813e95bf3f" y="272.810464"/>
      </g>
     </g>
     <g id="text_8">
      <!-- 2020-03-03 -->
      <g transform="translate(93.344139 315.448716)rotate(-30)scale(0.1 -0.1)">
       <use xlink:href="#DejaVuSans-50"/>
       <use x="63.623047" xlink:href="#DejaVuSans-48"/>
       <use x="127.246094" xlink:href="#DejaVuSans-50"/>
       <use x="190.869141" xlink:href="#DejaVuSans-48"/>
       <use x="254.492188" xlink:href="#DejaVuSans-45"/>
       <use x="290.576172" xlink:href="#DejaVuSans-48"/>
       <use x="354.199219" xlink:href="#DejaVuSans-51"/>
       <use x="417.822266" xlink:href="#DejaVuSans-45"/>
       <use x="453.90625" xlink:href="#DejaVuSans-48"/>
       <use x="517.529297" xlink:href="#DejaVuSans-51"/>
      </g>
     </g>
    </g>
    <g id="xtick_9">
     <g id="line2d_17">
      <path clip-path="url(#p9ed4172cd4)" d="M 115.618902 272.810464 
L 115.618902 26.88 
" style="fill:none;stroke:#b0b0b0;stroke-linecap:square;stroke-width:0.8;"/>
     </g>
     <g id="line2d_18">
      <g>
       <use style="stroke:#000000;stroke-width:0.8;" x="115.618902" xlink:href="#m813e95bf3f" y="272.810464"/>
      </g>
     </g>
     <g id="text_9">
      <!-- 2020-02-25 -->
      <defs>
       <path d="M 10.796875 72.90625 
L 49.515625 72.90625 
L 49.515625 64.59375 
L 19.828125 64.59375 
L 19.828125 46.734375 
Q 21.96875 47.46875 24.109375 47.828125 
Q 26.265625 48.1875 28.421875 48.1875 
Q 40.625 48.1875 47.75 41.5 
Q 54.890625 34.8125 54.890625 23.390625 
Q 54.890625 11.625 47.5625 5.09375 
Q 40.234375 -1.421875 26.90625 -1.421875 
Q 22.3125 -1.421875 17.546875 -0.640625 
Q 12.796875 0.140625 7.71875 1.703125 
L 7.71875 11.625 
Q 12.109375 9.234375 16.796875 8.0625 
Q 21.484375 6.890625 26.703125 6.890625 
Q 35.15625 6.890625 40.078125 11.328125 
Q 45.015625 15.765625 45.015625 23.390625 
Q 45.015625 31 40.078125 35.4375 
Q 35.15625 39.890625 26.703125 39.890625 
Q 22.75 39.890625 18.8125 39.015625 
Q 14.890625 38.140625 10.796875 36.28125 
z
" id="DejaVuSans-53"/>
      </defs>
      <g transform="translate(64.249451 315.448716)rotate(-30)scale(0.1 -0.1)">
       <use xlink:href="#DejaVuSans-50"/>
       <use x="63.623047" xlink:href="#DejaVuSans-48"/>
       <use x="127.246094" xlink:href="#DejaVuSans-50"/>
       <use x="190.869141" xlink:href="#DejaVuSans-48"/>
       <use x="254.492188" xlink:href="#DejaVuSans-45"/>
       <use x="290.576172" xlink:href="#DejaVuSans-48"/>
       <use x="354.199219" xlink:href="#DejaVuSans-50"/>
       <use x="417.822266" xlink:href="#DejaVuSans-45"/>
       <use x="453.90625" xlink:href="#DejaVuSans-50"/>
       <use x="517.529297" xlink:href="#DejaVuSans-53"/>
      </g>
     </g>
    </g>
    <g id="xtick_10">
     <g id="line2d_19">
      <path clip-path="url(#p9ed4172cd4)" d="M 377.471098 272.810464 
L 377.471098 26.88 
" style="fill:none;stroke:#b0b0b0;stroke-linecap:square;stroke-width:0.8;"/>
     </g>
     <g id="line2d_20">
      <g>
       <use style="stroke:#000000;stroke-width:0.8;" x="377.471098" xlink:href="#m813e95bf3f" y="272.810464"/>
      </g>
     </g>
     <g id="text_10">
      <!-- max inc 14d -->
      <defs>
       <path d="M 52 44.1875 
Q 55.375 50.25 60.0625 53.125 
Q 64.75 56 71.09375 56 
Q 79.640625 56 84.28125 50.015625 
Q 88.921875 44.046875 88.921875 33.015625 
L 88.921875 0 
L 79.890625 0 
L 79.890625 32.71875 
Q 79.890625 40.578125 77.09375 44.375 
Q 74.3125 48.1875 68.609375 48.1875 
Q 61.625 48.1875 57.5625 43.546875 
Q 53.515625 38.921875 53.515625 30.90625 
L 53.515625 0 
L 44.484375 0 
L 44.484375 32.71875 
Q 44.484375 40.625 41.703125 44.40625 
Q 38.921875 48.1875 33.109375 48.1875 
Q 26.21875 48.1875 22.15625 43.53125 
Q 18.109375 38.875 18.109375 30.90625 
L 18.109375 0 
L 9.078125 0 
L 9.078125 54.6875 
L 18.109375 54.6875 
L 18.109375 46.1875 
Q 21.1875 51.21875 25.484375 53.609375 
Q 29.78125 56 35.6875 56 
Q 41.65625 56 45.828125 52.96875 
Q 50 49.953125 52 44.1875 
z
" id="DejaVuSans-109"/>
       <path d="M 34.28125 27.484375 
Q 23.390625 27.484375 19.1875 25 
Q 14.984375 22.515625 14.984375 16.5 
Q 14.984375 11.71875 18.140625 8.90625 
Q 21.296875 6.109375 26.703125 6.109375 
Q 34.1875 6.109375 38.703125 11.40625 
Q 43.21875 16.703125 43.21875 25.484375 
L 43.21875 27.484375 
z
M 52.203125 31.203125 
L 52.203125 0 
L 43.21875 0 
L 43.21875 8.296875 
Q 40.140625 3.328125 35.546875 0.953125 
Q 30.953125 -1.421875 24.3125 -1.421875 
Q 15.921875 -1.421875 10.953125 3.296875 
Q 6 8.015625 6 15.921875 
Q 6 25.140625 12.171875 29.828125 
Q 18.359375 34.515625 30.609375 34.515625 
L 43.21875 34.515625 
L 43.21875 35.40625 
Q 43.21875 41.609375 39.140625 45 
Q 35.0625 48.390625 27.6875 48.390625 
Q 23 48.390625 18.546875 47.265625 
Q 14.109375 46.140625 10.015625 43.890625 
L 10.015625 52.203125 
Q 14.9375 54.109375 19.578125 55.046875 
Q 24.21875 56 28.609375 56 
Q 40.484375 56 46.34375 49.84375 
Q 52.203125 43.703125 52.203125 31.203125 
z
" id="DejaVuSans-97"/>
       <path d="M 54.890625 54.6875 
L 35.109375 28.078125 
L 55.90625 0 
L 45.3125 0 
L 29.390625 21.484375 
L 13.484375 0 
L 2.875 0 
L 24.125 28.609375 
L 4.6875 54.6875 
L 15.28125 54.6875 
L 29.78125 35.203125 
L 44.28125 54.6875 
z
" id="DejaVuSans-120"/>
       <path id="DejaVuSans-32"/>
       <path d="M 9.421875 54.6875 
L 18.40625 54.6875 
L 18.40625 0 
L 9.421875 0 
z
M 9.421875 75.984375 
L 18.40625 75.984375 
L 18.40625 64.59375 
L 9.421875 64.59375 
z
" id="DejaVuSans-105"/>
       <path d="M 54.890625 33.015625 
L 54.890625 0 
L 45.90625 0 
L 45.90625 32.71875 
Q 45.90625 40.484375 42.875 44.328125 
Q 39.84375 48.1875 33.796875 48.1875 
Q 26.515625 48.1875 22.3125 43.546875 
Q 18.109375 38.921875 18.109375 30.90625 
L 18.109375 0 
L 9.078125 0 
L 9.078125 54.6875 
L 18.109375 54.6875 
L 18.109375 46.1875 
Q 21.34375 51.125 25.703125 53.5625 
Q 30.078125 56 35.796875 56 
Q 45.21875 56 50.046875 50.171875 
Q 54.890625 44.34375 54.890625 33.015625 
z
" id="DejaVuSans-110"/>
       <path d="M 48.78125 52.59375 
L 48.78125 44.1875 
Q 44.96875 46.296875 41.140625 47.34375 
Q 37.3125 48.390625 33.40625 48.390625 
Q 24.65625 48.390625 19.8125 42.84375 
Q 14.984375 37.3125 14.984375 27.296875 
Q 14.984375 17.28125 19.8125 11.734375 
Q 24.65625 6.203125 33.40625 6.203125 
Q 37.3125 6.203125 41.140625 7.25 
Q 44.96875 8.296875 48.78125 10.40625 
L 48.78125 2.09375 
Q 45.015625 0.34375 40.984375 -0.53125 
Q 36.96875 -1.421875 32.421875 -1.421875 
Q 20.0625 -1.421875 12.78125 6.34375 
Q 5.515625 14.109375 5.515625 27.296875 
Q 5.515625 40.671875 12.859375 48.328125 
Q 20.21875 56 33.015625 56 
Q 37.15625 56 41.109375 55.140625 
Q 45.0625 54.296875 48.78125 52.59375 
z
" id="DejaVuSans-99"/>
       <path d="M 45.40625 46.390625 
L 45.40625 75.984375 
L 54.390625 75.984375 
L 54.390625 0 
L 45.40625 0 
L 45.40625 8.203125 
Q 42.578125 3.328125 38.25 0.953125 
Q 33.9375 -1.421875 27.875 -1.421875 
Q 17.96875 -1.421875 11.734375 6.484375 
Q 5.515625 14.40625 5.515625 27.296875 
Q 5.515625 40.1875 11.734375 48.09375 
Q 17.96875 56 27.875 56 
Q 33.9375 56 38.25 53.625 
Q 42.578125 51.265625 45.40625 46.390625 
z
M 14.796875 27.296875 
Q 14.796875 17.390625 18.875 11.75 
Q 22.953125 6.109375 30.078125 6.109375 
Q 37.203125 6.109375 41.296875 11.75 
Q 45.40625 17.390625 45.40625 27.296875 
Q 45.40625 37.203125 41.296875 42.84375 
Q 37.203125 48.484375 30.078125 48.484375 
Q 22.953125 48.484375 18.875 42.84375 
Q 14.796875 37.203125 14.796875 27.296875 
z
" id="DejaVuSans-100"/>
      </defs>
      <g transform="translate(322.883821 317.306529)rotate(-30)scale(0.1 -0.1)">
       <use xlink:href="#DejaVuSans-109"/>
       <use x="97.412109" xlink:href="#DejaVuSans-97"/>
       <use x="158.691406" xlink:href="#DejaVuSans-120"/>
       <use x="217.871094" xlink:href="#DejaVuSans-32"/>
       <use x="249.658203" xlink:href="#DejaVuSans-105"/>
       <use x="277.441406" xlink:href="#DejaVuSans-110"/>
       <use x="340.820312" xlink:href="#DejaVuSans-99"/>
       <use x="395.800781" xlink:href="#DejaVuSans-32"/>
       <use x="427.587891" xlink:href="#DejaVuSans-49"/>
       <use x="491.210938" xlink:href="#DejaVuSans-52"/>
       <use x="554.833984" xlink:href="#DejaVuSans-100"/>
      </g>
     </g>
    </g>
    <g id="xtick_11">
     <g id="line2d_21">
      <path clip-path="url(#p9ed4172cd4)" d="M 410.722171 272.810464 
L 410.722171 26.88 
" style="fill:none;stroke:#b0b0b0;stroke-linecap:square;stroke-width:0.8;"/>
     </g>
     <g id="line2d_22">
      <g>
       <use style="stroke:#000000;stroke-width:0.8;" x="410.722171" xlink:href="#m813e95bf3f" y="272.810464"/>
      </g>
     </g>
     <g id="text_11">
      <!-- avg inc 6d -->
      <defs>
       <path d="M 2.984375 54.6875 
L 12.5 54.6875 
L 29.59375 8.796875 
L 46.6875 54.6875 
L 56.203125 54.6875 
L 35.6875 0 
L 23.484375 0 
z
" id="DejaVuSans-118"/>
       <path d="M 45.40625 27.984375 
Q 45.40625 37.75 41.375 43.109375 
Q 37.359375 48.484375 30.078125 48.484375 
Q 22.859375 48.484375 18.828125 43.109375 
Q 14.796875 37.75 14.796875 27.984375 
Q 14.796875 18.265625 18.828125 12.890625 
Q 22.859375 7.515625 30.078125 7.515625 
Q 37.359375 7.515625 41.375 12.890625 
Q 45.40625 18.265625 45.40625 27.984375 
z
M 54.390625 6.78125 
Q 54.390625 -7.171875 48.1875 -13.984375 
Q 42 -20.796875 29.203125 -20.796875 
Q 24.46875 -20.796875 20.265625 -20.09375 
Q 16.0625 -19.390625 12.109375 -17.921875 
L 12.109375 -9.1875 
Q 16.0625 -11.328125 19.921875 -12.34375 
Q 23.78125 -13.375 27.78125 -13.375 
Q 36.625 -13.375 41.015625 -8.765625 
Q 45.40625 -4.15625 45.40625 5.171875 
L 45.40625 9.625 
Q 42.625 4.78125 38.28125 2.390625 
Q 33.9375 0 27.875 0 
Q 17.828125 0 11.671875 7.65625 
Q 5.515625 15.328125 5.515625 27.984375 
Q 5.515625 40.671875 11.671875 48.328125 
Q 17.828125 56 27.875 56 
Q 33.9375 56 38.28125 53.609375 
Q 42.625 51.21875 45.40625 46.390625 
L 45.40625 54.6875 
L 54.390625 54.6875 
z
" id="DejaVuSans-103"/>
       <path d="M 33.015625 40.375 
Q 26.375 40.375 22.484375 35.828125 
Q 18.609375 31.296875 18.609375 23.390625 
Q 18.609375 15.53125 22.484375 10.953125 
Q 26.375 6.390625 33.015625 6.390625 
Q 39.65625 6.390625 43.53125 10.953125 
Q 47.40625 15.53125 47.40625 23.390625 
Q 47.40625 31.296875 43.53125 35.828125 
Q 39.65625 40.375 33.015625 40.375 
z
M 52.59375 71.296875 
L 52.59375 62.3125 
Q 48.875 64.0625 45.09375 64.984375 
Q 41.3125 65.921875 37.59375 65.921875 
Q 27.828125 65.921875 22.671875 59.328125 
Q 17.53125 52.734375 16.796875 39.40625 
Q 19.671875 43.65625 24.015625 45.921875 
Q 28.375 48.1875 33.59375 48.1875 
Q 44.578125 48.1875 50.953125 41.515625 
Q 57.328125 34.859375 57.328125 23.390625 
Q 57.328125 12.15625 50.6875 5.359375 
Q 44.046875 -1.421875 33.015625 -1.421875 
Q 20.359375 -1.421875 13.671875 8.265625 
Q 6.984375 17.96875 6.984375 36.375 
Q 6.984375 53.65625 15.1875 63.9375 
Q 23.390625 74.21875 37.203125 74.21875 
Q 40.921875 74.21875 44.703125 73.484375 
Q 48.484375 72.75 52.59375 71.296875 
z
" id="DejaVuSans-54"/>
      </defs>
      <g transform="translate(364.582701 312.429185)rotate(-30)scale(0.1 -0.1)">
       <use xlink:href="#DejaVuSans-97"/>
       <use x="61.279297" xlink:href="#DejaVuSans-118"/>
       <use x="120.458984" xlink:href="#DejaVuSans-103"/>
       <use x="183.935547" xlink:href="#DejaVuSans-32"/>
       <use x="215.722656" xlink:href="#DejaVuSans-105"/>
       <use x="243.505859" xlink:href="#DejaVuSans-110"/>
       <use x="306.884766" xlink:href="#DejaVuSans-99"/>
       <use x="361.865234" xlink:href="#DejaVuSans-32"/>
       <use x="393.652344" xlink:href="#DejaVuSans-54"/>
       <use x="457.275391" xlink:href="#DejaVuSans-100"/>
      </g>
     </g>
    </g>
    <g id="xtick_12">
     <g id="line2d_23">
      <path clip-path="url(#p9ed4172cd4)" d="M 431.504091 272.810464 
L 431.504091 26.88 
" style="fill:none;stroke:#b0b0b0;stroke-linecap:square;stroke-width:0.8;"/>
     </g>
     <g id="line2d_24">
      <g>
       <use style="stroke:#000000;stroke-width:0.8;" x="431.504091" xlink:href="#m813e95bf3f" y="272.810464"/>
      </g>
     </g>
     <g id="text_12">
      <!-- today, 2020-05-11 -->
      <defs>
       <path d="M 18.3125 70.21875 
L 18.3125 54.6875 
L 36.8125 54.6875 
L 36.8125 47.703125 
L 18.3125 47.703125 
L 18.3125 18.015625 
Q 18.3125 11.328125 20.140625 9.421875 
Q 21.96875 7.515625 27.59375 7.515625 
L 36.8125 7.515625 
L 36.8125 0 
L 27.59375 0 
Q 17.1875 0 13.234375 3.875 
Q 9.28125 7.765625 9.28125 18.015625 
L 9.28125 47.703125 
L 2.6875 47.703125 
L 2.6875 54.6875 
L 9.28125 54.6875 
L 9.28125 70.21875 
z
" id="DejaVuSans-116"/>
       <path d="M 30.609375 48.390625 
Q 23.390625 48.390625 19.1875 42.75 
Q 14.984375 37.109375 14.984375 27.296875 
Q 14.984375 17.484375 19.15625 11.84375 
Q 23.34375 6.203125 30.609375 6.203125 
Q 37.796875 6.203125 41.984375 11.859375 
Q 46.1875 17.53125 46.1875 27.296875 
Q 46.1875 37.015625 41.984375 42.703125 
Q 37.796875 48.390625 30.609375 48.390625 
z
M 30.609375 56 
Q 42.328125 56 49.015625 48.375 
Q 55.71875 40.765625 55.71875 27.296875 
Q 55.71875 13.875 49.015625 6.21875 
Q 42.328125 -1.421875 30.609375 -1.421875 
Q 18.84375 -1.421875 12.171875 6.21875 
Q 5.515625 13.875 5.515625 27.296875 
Q 5.515625 40.765625 12.171875 48.375 
Q 18.84375 56 30.609375 56 
z
" id="DejaVuSans-111"/>
       <path d="M 32.171875 -5.078125 
Q 28.375 -14.84375 24.75 -17.8125 
Q 21.140625 -20.796875 15.09375 -20.796875 
L 7.90625 -20.796875 
L 7.90625 -13.28125 
L 13.1875 -13.28125 
Q 16.890625 -13.28125 18.9375 -11.515625 
Q 21 -9.765625 23.484375 -3.21875 
L 25.09375 0.875 
L 2.984375 54.6875 
L 12.5 54.6875 
L 29.59375 11.921875 
L 46.6875 54.6875 
L 56.203125 54.6875 
z
" id="DejaVuSans-121"/>
       <path d="M 11.71875 12.40625 
L 22.015625 12.40625 
L 22.015625 4 
L 14.015625 -11.625 
L 7.71875 -11.625 
L 11.71875 4 
z
" id="DejaVuSans-44"/>
      </defs>
      <g transform="translate(350.005074 332.844029)rotate(-30)scale(0.1 -0.1)">
       <use xlink:href="#DejaVuSans-116"/>
       <use x="39.208984" xlink:href="#DejaVuSans-111"/>
       <use x="100.390625" xlink:href="#DejaVuSans-100"/>
       <use x="163.867188" xlink:href="#DejaVuSans-97"/>
       <use x="225.146484" xlink:href="#DejaVuSans-121"/>
       <use x="284.326172" xlink:href="#DejaVuSans-44"/>
       <use x="316.113281" xlink:href="#DejaVuSans-32"/>
       <use x="347.900391" xlink:href="#DejaVuSans-50"/>
       <use x="411.523438" xlink:href="#DejaVuSans-48"/>
       <use x="475.146484" xlink:href="#DejaVuSans-50"/>
       <use x="538.769531" xlink:href="#DejaVuSans-48"/>
       <use x="602.392578" xlink:href="#DejaVuSans-45"/>
       <use x="638.476562" xlink:href="#DejaVuSans-48"/>
       <use x="702.099609" xlink:href="#DejaVuSans-53"/>
       <use x="765.722656" xlink:href="#DejaVuSans-45"/>
       <use x="801.806641" xlink:href="#DejaVuSans-49"/>
       <use x="865.429688" xlink:href="#DejaVuSans-49"/>
      </g>
     </g>
    </g>
   </g>
   <g id="matplotlib.axis_2">
    <g id="ytick_1">
     <g id="line2d_25">
      <path clip-path="url(#p9ed4172cd4)" d="M 43.09 261.631806 
L 450 261.631806 
" style="fill:none;stroke:#b0b0b0;stroke-linecap:square;stroke-width:0.8;"/>
     </g>
     <g id="line2d_26">
      <defs>
       <path d="M 0 0 
L -3.5 0 
" id="me7a1e62ecc" style="stroke:#000000;stroke-width:0.8;"/>
      </defs>
      <g>
       <use style="stroke:#000000;stroke-width:0.8;" x="43.09" xlink:href="#me7a1e62ecc" y="261.631806"/>
      </g>
     </g>
     <g id="text_13">
      <!-- 0 -->
      <g transform="translate(29.7275 265.431025)scale(0.1 -0.1)">
       <use xlink:href="#DejaVuSans-48"/>
      </g>
     </g>
    </g>
    <g id="ytick_2">
     <g id="line2d_27">
      <path clip-path="url(#p9ed4172cd4)" d="M 43.09 227.534941 
L 450 227.534941 
" style="fill:none;stroke:#b0b0b0;stroke-linecap:square;stroke-width:0.8;"/>
     </g>
     <g id="line2d_28">
      <g>
       <use style="stroke:#000000;stroke-width:0.8;" x="43.09" xlink:href="#me7a1e62ecc" y="227.534941"/>
      </g>
     </g>
     <g id="text_14">
      <!-- 1000 -->
      <g transform="translate(10.64 231.334159)scale(0.1 -0.1)">
       <use xlink:href="#DejaVuSans-49"/>
       <use x="63.623047" xlink:href="#DejaVuSans-48"/>
       <use x="127.246094" xlink:href="#DejaVuSans-48"/>
       <use x="190.869141" xlink:href="#DejaVuSans-48"/>
      </g>
     </g>
    </g>
    <g id="ytick_3">
     <g id="line2d_29">
      <path clip-path="url(#p9ed4172cd4)" d="M 43.09 193.438075 
L 450 193.438075 
" style="fill:none;stroke:#b0b0b0;stroke-linecap:square;stroke-width:0.8;"/>
     </g>
     <g id="line2d_30">
      <g>
       <use style="stroke:#000000;stroke-width:0.8;" x="43.09" xlink:href="#me7a1e62ecc" y="193.438075"/>
      </g>
     </g>
     <g id="text_15">
      <!-- 2000 -->
      <g transform="translate(10.64 197.237294)scale(0.1 -0.1)">
       <use xlink:href="#DejaVuSans-50"/>
       <use x="63.623047" xlink:href="#DejaVuSans-48"/>
       <use x="127.246094" xlink:href="#DejaVuSans-48"/>
       <use x="190.869141" xlink:href="#DejaVuSans-48"/>
      </g>
     </g>
    </g>
    <g id="ytick_4">
     <g id="line2d_31">
      <path clip-path="url(#p9ed4172cd4)" d="M 43.09 159.341209 
L 450 159.341209 
" style="fill:none;stroke:#b0b0b0;stroke-linecap:square;stroke-width:0.8;"/>
     </g>
     <g id="line2d_32">
      <g>
       <use style="stroke:#000000;stroke-width:0.8;" x="43.09" xlink:href="#me7a1e62ecc" y="159.341209"/>
      </g>
     </g>
     <g id="text_16">
      <!-- 3000 -->
      <g transform="translate(10.64 163.140428)scale(0.1 -0.1)">
       <use xlink:href="#DejaVuSans-51"/>
       <use x="63.623047" xlink:href="#DejaVuSans-48"/>
       <use x="127.246094" xlink:href="#DejaVuSans-48"/>
       <use x="190.869141" xlink:href="#DejaVuSans-48"/>
      </g>
     </g>
    </g>
    <g id="ytick_5">
     <g id="line2d_33">
      <path clip-path="url(#p9ed4172cd4)" d="M 43.09 125.244343 
L 450 125.244343 
" style="fill:none;stroke:#b0b0b0;stroke-linecap:square;stroke-width:0.8;"/>
     </g>
     <g id="line2d_34">
      <g>
       <use style="stroke:#000000;stroke-width:0.8;" x="43.09" xlink:href="#me7a1e62ecc" y="125.244343"/>
      </g>
     </g>
     <g id="text_17">
      <!-- 4000 -->
      <g transform="translate(10.64 129.043562)scale(0.1 -0.1)">
       <use xlink:href="#DejaVuSans-52"/>
       <use x="63.623047" xlink:href="#DejaVuSans-48"/>
       <use x="127.246094" xlink:href="#DejaVuSans-48"/>
       <use x="190.869141" xlink:href="#DejaVuSans-48"/>
      </g>
     </g>
    </g>
    <g id="ytick_6">
     <g id="line2d_35">
      <path clip-path="url(#p9ed4172cd4)" d="M 43.09 91.147477 
L 450 91.147477 
" style="fill:none;stroke:#b0b0b0;stroke-linecap:square;stroke-width:0.8;"/>
     </g>
     <g id="line2d_36">
      <g>
       <use style="stroke:#000000;stroke-width:0.8;" x="43.09" xlink:href="#me7a1e62ecc" y="91.147477"/>
      </g>
     </g>
     <g id="text_18">
      <!-- 5000 -->
      <g transform="translate(10.64 94.946696)scale(0.1 -0.1)">
       <use xlink:href="#DejaVuSans-53"/>
       <use x="63.623047" xlink:href="#DejaVuSans-48"/>
       <use x="127.246094" xlink:href="#DejaVuSans-48"/>
       <use x="190.869141" xlink:href="#DejaVuSans-48"/>
      </g>
     </g>
    </g>
    <g id="ytick_7">
     <g id="line2d_37">
      <path clip-path="url(#p9ed4172cd4)" d="M 43.09 57.050612 
L 450 57.050612 
" style="fill:none;stroke:#b0b0b0;stroke-linecap:square;stroke-width:0.8;"/>
     </g>
     <g id="line2d_38">
      <g>
       <use style="stroke:#000000;stroke-width:0.8;" x="43.09" xlink:href="#me7a1e62ecc" y="57.050612"/>
      </g>
     </g>
     <g id="text_19">
      <!-- 6000 -->
      <g transform="translate(10.64 60.84983)scale(0.1 -0.1)">
       <use xlink:href="#DejaVuSans-54"/>
       <use x="63.623047" xlink:href="#DejaVuSans-48"/>
       <use x="127.246094" xlink:href="#DejaVuSans-48"/>
       <use x="190.869141" xlink:href="#DejaVuSans-48"/>
      </g>
     </g>
    </g>
   </g>
   <g id="line2d_39">
    <path clip-path="url(#p9ed4172cd4)" d="M 103.14975 260.199738 
L 107.306134 258.460798 
L 111.462518 259.108638 
L 115.618902 258.460798 
L 119.775286 257.165117 
L 123.93167 254.74424 
L 128.088054 253.687237 
L 132.244438 253.448559 
L 136.400822 242.33298 
L 140.557206 249.970678 
L 144.71359 245.742667 
L 148.869974 241.616946 
L 153.026359 235.411317 
L 157.182743 235.104445 
L 161.339127 219.113015 
L 165.495511 210.759283 
L 169.651895 200.359739 
L 173.808279 228.319169 
L 177.964663 182.765756 
L 182.121047 261.631806 
L 186.277431 84.396298 
L 190.433815 142.395067 
L 194.590199 139.224058 
L 198.746583 151.396639 
L 202.902967 141.406258 
L 207.059351 118.186292 
L 211.215735 80.168287 
L 215.37212 57.527968 
L 219.528504 38.058657 
L 223.684888 72.053233 
L 227.841272 98.341916 
L 231.997656 82.657358 
L 236.15404 83.987136 
L 240.310424 50.128948 
L 244.466808 60.153426 
L 248.623192 57.93713 
L 252.779576 83.748458 
L 256.93596 123.5395 
L 261.092344 123.437209 
L 265.248728 98.580594 
L 269.405112 102.467637 
L 273.561496 105.297677 
L 277.71788 97.796366 
L 281.874265 114.469734 
L 286.030649 138.917186 
L 290.187033 158.011431 
L 294.343417 130.836229 
L 298.499801 118.288583 
L 302.656185 126.91509 
L 306.812569 101.581118 
L 310.968953 122.107432 
L 315.125337 154.124389 
L 319.281721 160.295921 
L 323.438105 170.695465 
L 327.594489 132.541073 
L 331.750873 142.531454 
L 335.907257 142.599648 
L 340.063641 157.738656 
L 344.220026 184.709277 
L 348.37641 168.58146 
L 352.532794 146.725369 
L 356.689178 171.4115 
L 360.845562 158.625175 
L 365.001946 181.265494 
L 369.15833 182.39069 
L 373.314714 202.337357 
L 377.471098 190.33526 
L 381.627482 190.505744 
L 385.783866 197.802474 
L 389.94025 194.631465 
L 394.096634 196.847761 
L 398.253018 214.27126 
L 402.409402 219.999533 
L 406.565787 224.977676 
L 410.722171 212.395932 
L 414.878555 213.862097 
L 419.034939 216.385266 
L 423.191323 224.704901 
L 427.347707 234.28612 
L 431.504091 236.263738 
" style="fill:none;stroke:#1f77b4;stroke-linecap:square;stroke-width:1.5;"/>
   </g>
   <g id="line2d_40">
    <path clip-path="url(#p9ed4172cd4)" d="M 90.680598 261.549 
L 94.836982 261.344419 
L 98.993366 260.891417 
L 103.14975 260.530965 
L 107.306134 260.077964 
L 111.462518 259.439865 
L 115.618902 258.455927 
L 119.775286 257.403795 
L 123.93167 256.439341 
L 128.088054 254.135367 
L 132.244438 252.829944 
L 136.400822 251.013068 
L 140.557206 248.791901 
L 144.71359 246.030055 
L 148.869974 243.37537 
L 153.026359 238.470293 
L 157.182743 233.959764 
L 161.339127 226.872487 
L 165.495511 224.383416 
L 169.651895 215.976103 
L 173.808279 219.721887 
L 177.964663 198.192152 
L 182.121047 187.232445 
L 186.277431 177.013128 
L 190.433815 170.018399 
L 194.590199 157.602269 
L 198.746583 148.376631 
L 202.902967 122.453271 
L 207.059351 118.614938 
L 211.215735 103.709737 
L 215.37212 94.113905 
L 219.528504 86.534659 
L 223.684888 78.141959 
L 227.841272 73.256365 
L 231.997656 68.965031 
L 236.15404 69.340096 
L 240.310424 72.179878 
L 244.466808 73.850625 
L 248.623192 77.450279 
L 252.779576 83.275972 
L 256.93596 85.360752 
L 261.092344 92.837708 
L 265.248728 99.286886 
L 269.405112 104.981063 
L 273.561496 109.369817 
L 277.71788 111.566629 
L 281.874265 116.505804 
L 286.030649 121.113752 
L 290.187033 123.373887 
L 294.343417 126.462088 
L 298.499801 127.002767 
L 302.656185 128.093867 
L 306.812569 130.266325 
L 310.968953 130.59268 
L 315.125337 136.286857 
L 319.281721 138.322927 
L 323.438105 140.553836 
L 327.594489 146.413626 
L 331.750873 151.503801 
L 335.907257 155.873071 
L 340.063641 157.056719 
L 344.220026 153.63242 
L 348.37641 159.185338 
L 352.532794 161.484441 
L 356.689178 167.008133 
L 360.845562 170.529852 
L 365.001946 173.048149 
L 369.15833 176.155835 
L 373.314714 182.410174 
L 377.471098 186.180313 
L 381.627482 191.324069 
L 385.783866 193.550107 
L 389.94025 198.104475 
L 394.096634 200.627643 
L 398.253018 205.576559 
L 402.409402 208.703729 
L 406.565787 210.997961 
L 410.722171 214.105647 
L 414.878555 218.085238 
L 419.034939 220.944504 
" style="fill:none;stroke:#ff7f0e;stroke-linecap:square;stroke-width:1.5;"/>
   </g>
   <g id="line2d_41">
    <path clip-path="url(#p9ed4172cd4)" d="M 74.055061 261.590403 
L 78.211445 261.488113 
L 82.367829 261.261612 
L 86.524213 261.081386 
L 90.680598 260.854885 
L 94.836982 260.535836 
L 98.993366 260.043867 
L 103.14975 259.476397 
L 107.306134 258.89188 
L 111.462518 257.513392 
L 115.618902 256.680454 
L 119.775286 255.545516 
L 123.93167 254.115883 
L 128.088054 252.242991 
L 132.244438 250.389583 
L 136.400822 247.454817 
L 140.557206 244.047566 
L 144.71359 239.851216 
L 148.869974 237.698242 
L 153.026359 232.384002 
L 157.182743 232.875971 
L 161.339127 220.783761 
L 165.495511 212.851369 
L 169.651895 205.486446 
L 173.808279 198.445443 
L 177.964663 190.992843 
L 182.121047 182.176367 
L 186.277431 171.087579 
L 190.433815 158.403545 
L 194.590199 145.471091 
L 198.746583 135.563516 
L 202.902967 128.276529 
L 207.059351 117.872114 
L 211.215735 110.816498 
L 215.37212 95.709151 
L 219.528504 93.977517 
L 223.684888 87.944808 
L 227.841272 83.982265 
L 231.997656 81.992469 
L 236.15404 80.708966 
L 240.310424 79.308559 
L 244.466808 80.901369 
L 248.623192 84.313491 
L 252.779576 88.580471 
L 256.93596 91.610221 
L 261.092344 94.508454 
L 265.248728 99.890888 
L 269.405112 103.237252 
L 273.561496 108.105797 
L 277.71788 112.874487 
L 281.874265 115.991915 
L 286.030649 118.731842 
L 290.187033 120.916477 
L 294.343417 123.549242 
L 298.499801 128.700304 
L 302.656185 130.848407 
L 306.812569 133.507962 
L 310.968953 136.708197 
L 315.125337 139.798834 
L 319.281721 143.069698 
L 323.438105 143.8247 
L 327.594489 144.959638 
L 331.750873 148.754132 
L 335.907257 151.019138 
L 340.063641 156.710879 
L 344.220026 161.016826 
L 348.37641 164.46061 
L 352.532794 166.606277 
L 356.689178 168.021297 
L 360.845562 172.682826 
L 365.001946 176.404255 
L 369.15833 180.27912 
L 373.314714 184.317163 
L 377.471098 186.837896 
L 381.627482 190.866197 
L 385.783866 195.556952 
L 389.94025 198.589137 
L 394.096634 202.714858 
L 398.253018 205.817673 
L 402.409402 209.524489 
" style="fill:none;stroke:#2ca02c;stroke-linecap:square;stroke-width:1.5;"/>
   </g>
   <g id="line2d_42">
    <path clip-path="url(#p9ed4172cd4)" d="M 61.585909 261.602581 
L 65.742293 261.534387 
L 69.898677 261.383386 
L 74.055061 261.263236 
L 78.211445 261.112235 
L 82.367829 260.899536 
L 86.524213 260.571556 
L 90.680598 260.194867 
L 94.836982 259.805189 
L 98.993366 258.886197 
L 103.14975 258.330905 
L 107.306134 257.574279 
L 111.462518 256.621191 
L 115.618902 255.372596 
L 119.775286 254.109388 
L 123.93167 252.084684 
L 128.088054 249.662183 
L 132.244438 246.744465 
L 136.400822 245.158149 
L 140.557206 241.402623 
L 144.71359 241.402623 
L 148.869974 232.990439 
L 153.026359 227.380693 
L 157.182743 221.702753 
L 161.339127 216.57361 
L 165.495511 210.999584 
L 169.651895 204.381545 
L 173.808279 196.068405 
L 177.964663 186.727487 
L 182.121047 176.470825 
L 186.277431 168.362266 
L 190.433815 161.141848 
L 194.590199 153.375881 
L 198.746583 145.8697 
L 202.902967 137.04673 
L 207.059351 128.715729 
L 211.215735 121.040687 
L 215.37212 114.992552 
L 219.528504 111.334446 
L 223.684888 106.340067 
L 227.841272 102.331249 
L 231.997656 94.752003 
L 236.15404 95.747307 
L 240.310424 93.623559 
L 244.466808 92.444782 
L 248.623192 91.850522 
L 252.779576 92.641245 
L 256.93596 93.243623 
L 261.092344 95.058875 
L 265.248728 98.363024 
L 269.405112 101.387903 
L 273.561496 103.771436 
L 277.71788 106.427744 
L 281.874265 110.124819 
L 286.030649 114.253787 
L 290.187033 118.178174 
L 294.343417 122.100937 
L 298.499801 126.132485 
L 302.656185 129.655828 
L 306.812569 132.568675 
L 310.968953 134.718401 
L 315.125337 137.011009 
L 319.281721 140.29405 
L 323.438105 142.833455 
L 327.594489 146.808175 
L 331.750873 150.042507 
L 335.907257 153.062515 
L 340.063641 154.601745 
L 344.220026 157.44315 
L 348.37641 161.229526 
L 352.532794 164.454115 
L 356.689178 168.990622 
L 360.845562 173.379376 
L 365.001946 176.516287 
L 369.15833 179.596371 
L 373.314714 181.582108 
L 377.471098 185.454537 
L 381.627482 188.971385 
L 385.783866 192.881159 
L 389.94025 196.526277 
" style="fill:none;stroke:#d62728;stroke-linecap:square;stroke-width:1.5;"/>
   </g>
   <g id="patch_3">
    <path d="M 43.09 272.810464 
L 43.09 26.88 
" style="fill:none;stroke:#000000;stroke-linecap:square;stroke-linejoin:miter;stroke-width:0.8;"/>
   </g>
   <g id="patch_4">
    <path d="M 450 272.810464 
L 450 26.88 
" style="fill:none;stroke:#000000;stroke-linecap:square;stroke-linejoin:miter;stroke-width:0.8;"/>
   </g>
   <g id="patch_5">
    <path d="M 43.09 272.810464 
L 450 272.810464 
" style="fill:none;stroke:#000000;stroke-linecap:square;stroke-linejoin:miter;stroke-width:0.8;"/>
   </g>
   <g id="patch_6">
    <path d="M 43.09 26.88 
L 450 26.88 
" style="fill:none;stroke:#000000;stroke-linecap:square;stroke-linejoin:miter;stroke-width:0.8;"/>
   </g>
   <g id="text_20">
    <!-- Italy diffs -->
    <defs>
     <path d="M 9.8125 72.90625 
L 19.671875 72.90625 
L 19.671875 0 
L 9.8125 0 
z
" id="DejaVuSans-73"/>
     <path d="M 9.421875 75.984375 
L 18.40625 75.984375 
L 18.40625 0 
L 9.421875 0 
z
" id="DejaVuSans-108"/>
     <path d="M 37.109375 75.984375 
L 37.109375 68.5 
L 28.515625 68.5 
Q 23.6875 68.5 21.796875 66.546875 
Q 19.921875 64.59375 19.921875 59.515625 
L 19.921875 54.6875 
L 34.71875 54.6875 
L 34.71875 47.703125 
L 19.921875 47.703125 
L 19.921875 0 
L 10.890625 0 
L 10.890625 47.703125 
L 2.296875 47.703125 
L 2.296875 54.6875 
L 10.890625 54.6875 
L 10.890625 58.5 
Q 10.890625 67.625 15.140625 71.796875 
Q 19.390625 75.984375 28.609375 75.984375 
z
" id="DejaVuSans-102"/>
     <path d="M 44.28125 53.078125 
L 44.28125 44.578125 
Q 40.484375 46.53125 36.375 47.5 
Q 32.28125 48.484375 27.875 48.484375 
Q 21.1875 48.484375 17.84375 46.4375 
Q 14.5 44.390625 14.5 40.28125 
Q 14.5 37.15625 16.890625 35.375 
Q 19.28125 33.59375 26.515625 31.984375 
L 29.59375 31.296875 
Q 39.15625 29.25 43.1875 25.515625 
Q 47.21875 21.78125 47.21875 15.09375 
Q 47.21875 7.46875 41.1875 3.015625 
Q 35.15625 -1.421875 24.609375 -1.421875 
Q 20.21875 -1.421875 15.453125 -0.5625 
Q 10.6875 0.296875 5.421875 2 
L 5.421875 11.28125 
Q 10.40625 8.6875 15.234375 7.390625 
Q 20.0625 6.109375 24.8125 6.109375 
Q 31.15625 6.109375 34.5625 8.28125 
Q 37.984375 10.453125 37.984375 14.40625 
Q 37.984375 18.0625 35.515625 20.015625 
Q 33.0625 21.96875 24.703125 23.78125 
L 21.578125 24.515625 
Q 13.234375 26.265625 9.515625 29.90625 
Q 5.8125 33.546875 5.8125 39.890625 
Q 5.8125 47.609375 11.28125 51.796875 
Q 16.75 56 26.8125 56 
Q 31.78125 56 36.171875 55.265625 
Q 40.578125 54.546875 44.28125 53.078125 
z
" id="DejaVuSans-115"/>
    </defs>
    <g transform="translate(218.795 20.88)scale(0.12 -0.12)">
     <use xlink:href="#DejaVuSans-73"/>
     <use x="29.492188" xlink:href="#DejaVuSans-116"/>
     <use x="68.701172" xlink:href="#DejaVuSans-97"/>
     <use x="129.980469" xlink:href="#DejaVuSans-108"/>
     <use x="157.763672" xlink:href="#DejaVuSans-121"/>
     <use x="216.943359" xlink:href="#DejaVuSans-32"/>
     <use x="248.730469" xlink:href="#DejaVuSans-100"/>
     <use x="312.207031" xlink:href="#DejaVuSans-105"/>
     <use x="339.990234" xlink:href="#DejaVuSans-102"/>
     <use x="375.195312" xlink:href="#DejaVuSans-102"/>
     <use x="410.400391" xlink:href="#DejaVuSans-115"/>
    </g>
   </g>
   <g id="legend_1">
    <g id="patch_7">
     <path d="M 308.96875 93.5925 
L 443 93.5925 
Q 445 93.5925 445 91.5925 
L 445 33.88 
Q 445 31.88 443 31.88 
L 308.96875 31.88 
Q 306.96875 31.88 306.96875 33.88 
L 306.96875 91.5925 
Q 306.96875 93.5925 308.96875 93.5925 
z
" style="fill:#ffffff;opacity:0.8;stroke:#cccccc;stroke-linejoin:miter;"/>
    </g>
    <g id="line2d_43">
     <path d="M 310.96875 39.978438 
L 330.96875 39.978438 
" style="fill:none;stroke:#1f77b4;stroke-linecap:square;stroke-width:1.5;"/>
    </g>
    <g id="line2d_44"/>
    <g id="text_21">
     <!-- diffs -->
     <g transform="translate(338.96875 43.478438)scale(0.1 -0.1)">
      <use xlink:href="#DejaVuSans-100"/>
      <use x="63.476562" xlink:href="#DejaVuSans-105"/>
      <use x="91.259766" xlink:href="#DejaVuSans-102"/>
      <use x="126.464844" xlink:href="#DejaVuSans-102"/>
      <use x="161.669922" xlink:href="#DejaVuSans-115"/>
     </g>
    </g>
    <g id="line2d_45">
     <path d="M 310.96875 54.656563 
L 330.96875 54.656563 
" style="fill:none;stroke:#ff7f0e;stroke-linecap:square;stroke-width:1.5;"/>
    </g>
    <g id="line2d_46"/>
    <g id="text_22">
     <!-- one week avg diffs -->
     <defs>
      <path d="M 56.203125 29.59375 
L 56.203125 25.203125 
L 14.890625 25.203125 
Q 15.484375 15.921875 20.484375 11.0625 
Q 25.484375 6.203125 34.421875 6.203125 
Q 39.59375 6.203125 44.453125 7.46875 
Q 49.3125 8.734375 54.109375 11.28125 
L 54.109375 2.78125 
Q 49.265625 0.734375 44.1875 -0.34375 
Q 39.109375 -1.421875 33.890625 -1.421875 
Q 20.796875 -1.421875 13.15625 6.1875 
Q 5.515625 13.8125 5.515625 26.8125 
Q 5.515625 40.234375 12.765625 48.109375 
Q 20.015625 56 32.328125 56 
Q 43.359375 56 49.78125 48.890625 
Q 56.203125 41.796875 56.203125 29.59375 
z
M 47.21875 32.234375 
Q 47.125 39.59375 43.09375 43.984375 
Q 39.0625 48.390625 32.421875 48.390625 
Q 24.90625 48.390625 20.390625 44.140625 
Q 15.875 39.890625 15.1875 32.171875 
z
" id="DejaVuSans-101"/>
      <path d="M 4.203125 54.6875 
L 13.1875 54.6875 
L 24.421875 12.015625 
L 35.59375 54.6875 
L 46.1875 54.6875 
L 57.421875 12.015625 
L 68.609375 54.6875 
L 77.59375 54.6875 
L 63.28125 0 
L 52.6875 0 
L 40.921875 44.828125 
L 29.109375 0 
L 18.5 0 
z
" id="DejaVuSans-119"/>
      <path d="M 9.078125 75.984375 
L 18.109375 75.984375 
L 18.109375 31.109375 
L 44.921875 54.6875 
L 56.390625 54.6875 
L 27.390625 29.109375 
L 57.625 0 
L 45.90625 0 
L 18.109375 26.703125 
L 18.109375 0 
L 9.078125 0 
z
" id="DejaVuSans-107"/>
     </defs>
     <g transform="translate(338.96875 58.156563)scale(0.1 -0.1)">
      <use xlink:href="#DejaVuSans-111"/>
      <use x="61.181641" xlink:href="#DejaVuSans-110"/>
      <use x="124.560547" xlink:href="#DejaVuSans-101"/>
      <use x="186.083984" xlink:href="#DejaVuSans-32"/>
      <use x="217.871094" xlink:href="#DejaVuSans-119"/>
      <use x="299.658203" xlink:href="#DejaVuSans-101"/>
      <use x="361.181641" xlink:href="#DejaVuSans-101"/>
      <use x="422.705078" xlink:href="#DejaVuSans-107"/>
      <use x="480.615234" xlink:href="#DejaVuSans-32"/>
      <use x="512.402344" xlink:href="#DejaVuSans-97"/>
      <use x="573.681641" xlink:href="#DejaVuSans-118"/>
      <use x="632.861328" xlink:href="#DejaVuSans-103"/>
      <use x="696.337891" xlink:href="#DejaVuSans-32"/>
      <use x="728.125" xlink:href="#DejaVuSans-100"/>
      <use x="791.601562" xlink:href="#DejaVuSans-105"/>
      <use x="819.384766" xlink:href="#DejaVuSans-102"/>
      <use x="854.589844" xlink:href="#DejaVuSans-102"/>
      <use x="889.794922" xlink:href="#DejaVuSans-115"/>
     </g>
    </g>
    <g id="line2d_47">
     <path d="M 310.96875 69.334688 
L 330.96875 69.334688 
" style="fill:none;stroke:#2ca02c;stroke-linecap:square;stroke-width:1.5;"/>
    </g>
    <g id="line2d_48"/>
    <g id="text_23">
     <!-- two week avg diffs -->
     <g transform="translate(338.96875 72.834688)scale(0.1 -0.1)">
      <use xlink:href="#DejaVuSans-116"/>
      <use x="39.208984" xlink:href="#DejaVuSans-119"/>
      <use x="120.996094" xlink:href="#DejaVuSans-111"/>
      <use x="182.177734" xlink:href="#DejaVuSans-32"/>
      <use x="213.964844" xlink:href="#DejaVuSans-119"/>
      <use x="295.751953" xlink:href="#DejaVuSans-101"/>
      <use x="357.275391" xlink:href="#DejaVuSans-101"/>
      <use x="418.798828" xlink:href="#DejaVuSans-107"/>
      <use x="476.708984" xlink:href="#DejaVuSans-32"/>
      <use x="508.496094" xlink:href="#DejaVuSans-97"/>
      <use x="569.775391" xlink:href="#DejaVuSans-118"/>
      <use x="628.955078" xlink:href="#DejaVuSans-103"/>
      <use x="692.431641" xlink:href="#DejaVuSans-32"/>
      <use x="724.21875" xlink:href="#DejaVuSans-100"/>
      <use x="787.695312" xlink:href="#DejaVuSans-105"/>
      <use x="815.478516" xlink:href="#DejaVuSans-102"/>
      <use x="850.683594" xlink:href="#DejaVuSans-102"/>
      <use x="885.888672" xlink:href="#DejaVuSans-115"/>
     </g>
    </g>
    <g id="line2d_49">
     <path d="M 310.96875 84.012813 
L 330.96875 84.012813 
" style="fill:none;stroke:#d62728;stroke-linecap:square;stroke-width:1.5;"/>
    </g>
    <g id="line2d_50"/>
    <g id="text_24">
     <!-- three week avg diffs -->
     <defs>
      <path d="M 54.890625 33.015625 
L 54.890625 0 
L 45.90625 0 
L 45.90625 32.71875 
Q 45.90625 40.484375 42.875 44.328125 
Q 39.84375 48.1875 33.796875 48.1875 
Q 26.515625 48.1875 22.3125 43.546875 
Q 18.109375 38.921875 18.109375 30.90625 
L 18.109375 0 
L 9.078125 0 
L 9.078125 75.984375 
L 18.109375 75.984375 
L 18.109375 46.1875 
Q 21.34375 51.125 25.703125 53.5625 
Q 30.078125 56 35.796875 56 
Q 45.21875 56 50.046875 50.171875 
Q 54.890625 44.34375 54.890625 33.015625 
z
" id="DejaVuSans-104"/>
      <path d="M 41.109375 46.296875 
Q 39.59375 47.171875 37.8125 47.578125 
Q 36.03125 48 33.890625 48 
Q 26.265625 48 22.1875 43.046875 
Q 18.109375 38.09375 18.109375 28.8125 
L 18.109375 0 
L 9.078125 0 
L 9.078125 54.6875 
L 18.109375 54.6875 
L 18.109375 46.1875 
Q 20.953125 51.171875 25.484375 53.578125 
Q 30.03125 56 36.53125 56 
Q 37.453125 56 38.578125 55.875 
Q 39.703125 55.765625 41.0625 55.515625 
z
" id="DejaVuSans-114"/>
     </defs>
     <g transform="translate(338.96875 87.512813)scale(0.1 -0.1)">
      <use xlink:href="#DejaVuSans-116"/>
      <use x="39.208984" xlink:href="#DejaVuSans-104"/>
      <use x="102.587891" xlink:href="#DejaVuSans-114"/>
      <use x="141.451172" xlink:href="#DejaVuSans-101"/>
      <use x="202.974609" xlink:href="#DejaVuSans-101"/>
      <use x="264.498047" xlink:href="#DejaVuSans-32"/>
      <use x="296.285156" xlink:href="#DejaVuSans-119"/>
      <use x="378.072266" xlink:href="#DejaVuSans-101"/>
      <use x="439.595703" xlink:href="#DejaVuSans-101"/>
      <use x="501.119141" xlink:href="#DejaVuSans-107"/>
      <use x="559.029297" xlink:href="#DejaVuSans-32"/>
      <use x="590.816406" xlink:href="#DejaVuSans-97"/>
      <use x="652.095703" xlink:href="#DejaVuSans-118"/>
      <use x="711.275391" xlink:href="#DejaVuSans-103"/>
      <use x="774.751953" xlink:href="#DejaVuSans-32"/>
      <use x="806.539062" xlink:href="#DejaVuSans-100"/>
      <use x="870.015625" xlink:href="#DejaVuSans-105"/>
      <use x="897.798828" xlink:href="#DejaVuSans-102"/>
      <use x="933.003906" xlink:href="#DejaVuSans-102"/>
      <use x="968.208984" xlink:href="#DejaVuSans-115"/>
     </g>
    </g>
   </g>
  </g>
 </g>
 <defs>
  <clipPath id="p9ed4172cd4">
   <rect height="245.930464" width="406.91" x="43.09" y="26.88"/>
  </clipPath>
 </defs>
</svg>
